<?xml version="1.0" encoding="utf-8" standalone="no"?>
<!DOCTYPE svg PUBLIC "-//W3C//DTD SVG 1.1//EN"
  "http://www.w3.org/Graphics/SVG/1.1/DTD/svg11.dtd">
<svg xmlns:xlink="http://www.w3.org/1999/xlink" width="1114.746486pt" height="116.378799pt" viewBox="0 0 1114.746486 116.378799" xmlns="http://www.w3.org/2000/svg" version="1.1">
 <metadata>
  <rdf:RDF xmlns:dc="http://purl.org/dc/elements/1.1/" xmlns:cc="http://creativecommons.org/ns#" xmlns:rdf="http://www.w3.org/1999/02/22-rdf-syntax-ns#">
   <cc:Work>
    <dc:type rdf:resource="http://purl.org/dc/dcmitype/StillImage"/>
    <dc:date>2025-10-08T23:25:28.716211</dc:date>
    <dc:format>image/svg+xml</dc:format>
    <dc:creator>
     <cc:Agent>
      <dc:title>Matplotlib v3.10.6, https://matplotlib.org/</dc:title>
     </cc:Agent>
    </dc:creator>
   </cc:Work>
  </rdf:RDF>
 </metadata>
 <defs>
  <style type="text/css">*{stroke-linejoin: round; stroke-linecap: butt}</style>
 </defs>
 <g id="figure_1">
  <g id="patch_1">
   <path d="M 0 116.378799 
L 1114.746486 116.378799 
L 1114.746486 0 
L 0 0 
z
" style="fill: #ffffff"/>
  </g>
  <g id="axes_1">
   <g id="line2d_1">
    <path d="M 59.9461 25.7416 
L 1105.228786 25.7416 
" clip-path="url(#p578953d9ef)" style="fill: none; stroke: #000000; stroke-linecap: square"/>
   </g>
   <g id="line2d_2">
    <path d="M 59.9461 48.918599 
L 1105.228786 48.918599 
" clip-path="url(#p578953d9ef)" style="fill: none; stroke: #000000; stroke-linecap: square"/>
   </g>
   <g id="line2d_3">
    <path d="M 59.9461 72.095599 
L 1105.228786 72.095599 
" clip-path="url(#p578953d9ef)" style="fill: none; stroke: #000000; stroke-linecap: square"/>
   </g>
   <g id="line2d_4">
    <path d="M 59.9461 95.272599 
L 1105.228786 95.272599 
" clip-path="url(#p578953d9ef)" style="fill: none; stroke: #000000; stroke-linecap: square"/>
   </g>
   <g id="patch_2">
    <path d="M 57.6284 14.1531 
L -521.796592 14.1531 
L -521.796592 130.038098 
L 57.6284 130.038098 
z
" clip-path="url(#p578953d9ef)" style="fill: #ffffff; stroke: #ffffff; stroke-width: 0.75; stroke-linejoin: miter"/>
   </g>
   <g id="line2d_5">
    <path d="M 141.992679 95.272599 
L 141.992679 25.7416 
" clip-path="url(#p578953d9ef)" style="fill: none; stroke: #002d9c; stroke-linecap: square"/>
   </g>
   <g id="line2d_6">
    <path d="M 257.877677 72.095599 
L 257.877677 25.7416 
" clip-path="url(#p578953d9ef)" style="fill: none; stroke: #002d9c; stroke-linecap: square"/>
   </g>
   <g id="line2d_7">
    <path d="M 373.762676 95.272599 
L 373.762676 25.7416 
" clip-path="url(#p578953d9ef)" style="fill: none; stroke: #002d9c; stroke-linecap: square"/>
   </g>
   <g id="line2d_8">
    <path d="M 489.647674 72.095599 
L 489.647674 25.7416 
" clip-path="url(#p578953d9ef)" style="fill: none; stroke: #002d9c; stroke-linecap: square"/>
   </g>
   <g id="line2d_9">
    <path d="M 605.532673 95.272599 
L 605.532673 25.7416 
" clip-path="url(#p578953d9ef)" style="fill: none; stroke: #002d9c; stroke-linecap: square"/>
   </g>
   <g id="line2d_10">
    <path d="M 721.417671 72.095599 
L 721.417671 25.7416 
" clip-path="url(#p578953d9ef)" style="fill: none; stroke: #002d9c; stroke-linecap: square"/>
   </g>
   <g id="line2d_11">
    <path d="M 837.30267 95.272599 
L 837.30267 25.7416 
" clip-path="url(#p578953d9ef)" style="fill: none; stroke: #002d9c; stroke-linecap: square"/>
   </g>
   <g id="line2d_12">
    <path d="M 953.187668 72.095599 
L 953.187668 25.7416 
" clip-path="url(#p578953d9ef)" style="fill: none; stroke: #002d9c; stroke-linecap: square"/>
   </g>
   <g id="patch_3">
    <path d="M 114.296164 37.3301 
L 123.335194 37.3301 
L 123.335194 14.1531 
L 114.296164 14.1531 
z
" clip-path="url(#p578953d9ef)" style="fill: #a8a8a8; opacity: 0.6"/>
   </g>
   <g id="patch_4">
    <path d="M 114.296164 60.507099 
L 123.335194 60.507099 
L 123.335194 37.3301 
L 114.296164 37.3301 
z
" clip-path="url(#p578953d9ef)" style="fill: #a8a8a8; opacity: 0.6"/>
   </g>
   <g id="patch_5">
    <path d="M 114.296164 83.684099 
L 123.335194 83.684099 
L 123.335194 60.507099 
L 114.296164 60.507099 
z
" clip-path="url(#p578953d9ef)" style="fill: #a8a8a8; opacity: 0.6"/>
   </g>
   <g id="patch_6">
    <path d="M 114.296164 106.861099 
L 123.335194 106.861099 
L 123.335194 83.684099 
L 114.296164 83.684099 
z
" clip-path="url(#p578953d9ef)" style="fill: #a8a8a8; opacity: 0.6"/>
   </g>
   <g id="patch_7">
    <path d="M 160.650164 37.3301 
L 169.689194 37.3301 
L 169.689194 14.1531 
L 160.650164 14.1531 
z
" clip-path="url(#p578953d9ef)" style="fill: #a8a8a8; opacity: 0.6"/>
   </g>
   <g id="patch_8">
    <path d="M 160.650164 60.507099 
L 169.689194 60.507099 
L 169.689194 37.3301 
L 160.650164 37.3301 
z
" clip-path="url(#p578953d9ef)" style="fill: #a8a8a8; opacity: 0.6"/>
   </g>
   <g id="patch_9">
    <path d="M 160.650164 83.684099 
L 169.689194 83.684099 
L 169.689194 60.507099 
L 160.650164 60.507099 
z
" clip-path="url(#p578953d9ef)" style="fill: #a8a8a8; opacity: 0.6"/>
   </g>
   <g id="patch_10">
    <path d="M 160.650164 106.861099 
L 169.689194 106.861099 
L 169.689194 83.684099 
L 160.650164 83.684099 
z
" clip-path="url(#p578953d9ef)" style="fill: #a8a8a8; opacity: 0.6"/>
   </g>
   <g id="patch_11">
    <path d="M 346.066161 37.3301 
L 355.105191 37.3301 
L 355.105191 14.1531 
L 346.066161 14.1531 
z
" clip-path="url(#p578953d9ef)" style="fill: #a8a8a8; opacity: 0.6"/>
   </g>
   <g id="patch_12">
    <path d="M 346.066161 60.507099 
L 355.105191 60.507099 
L 355.105191 37.3301 
L 346.066161 37.3301 
z
" clip-path="url(#p578953d9ef)" style="fill: #a8a8a8; opacity: 0.6"/>
   </g>
   <g id="patch_13">
    <path d="M 346.066161 83.684099 
L 355.105191 83.684099 
L 355.105191 60.507099 
L 346.066161 60.507099 
z
" clip-path="url(#p578953d9ef)" style="fill: #a8a8a8; opacity: 0.6"/>
   </g>
   <g id="patch_14">
    <path d="M 346.066161 106.861099 
L 355.105191 106.861099 
L 355.105191 83.684099 
L 346.066161 83.684099 
z
" clip-path="url(#p578953d9ef)" style="fill: #a8a8a8; opacity: 0.6"/>
   </g>
   <g id="patch_15">
    <path d="M 392.420161 37.3301 
L 401.45919 37.3301 
L 401.45919 14.1531 
L 392.420161 14.1531 
z
" clip-path="url(#p578953d9ef)" style="fill: #a8a8a8; opacity: 0.6"/>
   </g>
   <g id="patch_16">
    <path d="M 392.420161 60.507099 
L 401.45919 60.507099 
L 401.45919 37.3301 
L 392.420161 37.3301 
z
" clip-path="url(#p578953d9ef)" style="fill: #a8a8a8; opacity: 0.6"/>
   </g>
   <g id="patch_17">
    <path d="M 392.420161 83.684099 
L 401.45919 83.684099 
L 401.45919 60.507099 
L 392.420161 60.507099 
z
" clip-path="url(#p578953d9ef)" style="fill: #a8a8a8; opacity: 0.6"/>
   </g>
   <g id="patch_18">
    <path d="M 392.420161 106.861099 
L 401.45919 106.861099 
L 401.45919 83.684099 
L 392.420161 83.684099 
z
" clip-path="url(#p578953d9ef)" style="fill: #a8a8a8; opacity: 0.6"/>
   </g>
   <g id="patch_19">
    <path d="M 577.836158 37.3301 
L 586.875188 37.3301 
L 586.875188 14.1531 
L 577.836158 14.1531 
z
" clip-path="url(#p578953d9ef)" style="fill: #a8a8a8; opacity: 0.6"/>
   </g>
   <g id="patch_20">
    <path d="M 577.836158 60.507099 
L 586.875188 60.507099 
L 586.875188 37.3301 
L 577.836158 37.3301 
z
" clip-path="url(#p578953d9ef)" style="fill: #a8a8a8; opacity: 0.6"/>
   </g>
   <g id="patch_21">
    <path d="M 577.836158 83.684099 
L 586.875188 83.684099 
L 586.875188 60.507099 
L 577.836158 60.507099 
z
" clip-path="url(#p578953d9ef)" style="fill: #a8a8a8; opacity: 0.6"/>
   </g>
   <g id="patch_22">
    <path d="M 577.836158 106.861099 
L 586.875188 106.861099 
L 586.875188 83.684099 
L 577.836158 83.684099 
z
" clip-path="url(#p578953d9ef)" style="fill: #a8a8a8; opacity: 0.6"/>
   </g>
   <g id="patch_23">
    <path d="M 624.190158 37.3301 
L 633.229187 37.3301 
L 633.229187 14.1531 
L 624.190158 14.1531 
z
" clip-path="url(#p578953d9ef)" style="fill: #a8a8a8; opacity: 0.6"/>
   </g>
   <g id="patch_24">
    <path d="M 624.190158 60.507099 
L 633.229187 60.507099 
L 633.229187 37.3301 
L 624.190158 37.3301 
z
" clip-path="url(#p578953d9ef)" style="fill: #a8a8a8; opacity: 0.6"/>
   </g>
   <g id="patch_25">
    <path d="M 624.190158 83.684099 
L 633.229187 83.684099 
L 633.229187 60.507099 
L 624.190158 60.507099 
z
" clip-path="url(#p578953d9ef)" style="fill: #a8a8a8; opacity: 0.6"/>
   </g>
   <g id="patch_26">
    <path d="M 624.190158 106.861099 
L 633.229187 106.861099 
L 633.229187 83.684099 
L 624.190158 83.684099 
z
" clip-path="url(#p578953d9ef)" style="fill: #a8a8a8; opacity: 0.6"/>
   </g>
   <g id="patch_27">
    <path d="M 809.606155 37.3301 
L 818.645185 37.3301 
L 818.645185 14.1531 
L 809.606155 14.1531 
z
" clip-path="url(#p578953d9ef)" style="fill: #a8a8a8; opacity: 0.6"/>
   </g>
   <g id="patch_28">
    <path d="M 809.606155 60.507099 
L 818.645185 60.507099 
L 818.645185 37.3301 
L 809.606155 37.3301 
z
" clip-path="url(#p578953d9ef)" style="fill: #a8a8a8; opacity: 0.6"/>
   </g>
   <g id="patch_29">
    <path d="M 809.606155 83.684099 
L 818.645185 83.684099 
L 818.645185 60.507099 
L 809.606155 60.507099 
z
" clip-path="url(#p578953d9ef)" style="fill: #a8a8a8; opacity: 0.6"/>
   </g>
   <g id="patch_30">
    <path d="M 809.606155 106.861099 
L 818.645185 106.861099 
L 818.645185 83.684099 
L 809.606155 83.684099 
z
" clip-path="url(#p578953d9ef)" style="fill: #a8a8a8; opacity: 0.6"/>
   </g>
   <g id="patch_31">
    <path d="M 855.960154 37.3301 
L 864.999184 37.3301 
L 864.999184 14.1531 
L 855.960154 14.1531 
z
" clip-path="url(#p578953d9ef)" style="fill: #a8a8a8; opacity: 0.6"/>
   </g>
   <g id="patch_32">
    <path d="M 855.960154 60.507099 
L 864.999184 60.507099 
L 864.999184 37.3301 
L 855.960154 37.3301 
z
" clip-path="url(#p578953d9ef)" style="fill: #a8a8a8; opacity: 0.6"/>
   </g>
   <g id="patch_33">
    <path d="M 855.960154 83.684099 
L 864.999184 83.684099 
L 864.999184 60.507099 
L 855.960154 60.507099 
z
" clip-path="url(#p578953d9ef)" style="fill: #a8a8a8; opacity: 0.6"/>
   </g>
   <g id="patch_34">
    <path d="M 855.960154 106.861099 
L 864.999184 106.861099 
L 864.999184 83.684099 
L 855.960154 83.684099 
z
" clip-path="url(#p578953d9ef)" style="fill: #a8a8a8; opacity: 0.6"/>
   </g>
   <g id="patch_35">
    <path d="M 1041.376152 37.3301 
L 1050.415182 37.3301 
L 1050.415182 14.1531 
L 1041.376152 14.1531 
z
" clip-path="url(#p578953d9ef)" style="fill: #a8a8a8; opacity: 0.6"/>
   </g>
   <g id="patch_36">
    <path d="M 1041.376152 60.507099 
L 1050.415182 60.507099 
L 1050.415182 37.3301 
L 1041.376152 37.3301 
z
" clip-path="url(#p578953d9ef)" style="fill: #a8a8a8; opacity: 0.6"/>
   </g>
   <g id="patch_37">
    <path d="M 1041.376152 83.684099 
L 1050.415182 83.684099 
L 1050.415182 60.507099 
L 1041.376152 60.507099 
z
" clip-path="url(#p578953d9ef)" style="fill: #a8a8a8; opacity: 0.6"/>
   </g>
   <g id="patch_38">
    <path d="M 1041.376152 106.861099 
L 1050.415182 106.861099 
L 1050.415182 83.684099 
L 1041.376152 83.684099 
z
" clip-path="url(#p578953d9ef)" style="fill: #a8a8a8; opacity: 0.6"/>
   </g>
   <g id="patch_39">
    <path d="M 64.929155 33.274125 
L 79.994205 33.274125 
L 79.994205 18.209075 
L 64.929155 18.209075 
z
" clip-path="url(#p578953d9ef)" style="fill: #fa4d56; stroke: #fa4d56; stroke-width: 0.75; stroke-linejoin: miter"/>
   </g>
   <g id="patch_40">
    <path d="M 64.929155 56.451124 
L 79.994205 56.451124 
L 79.994205 41.386075 
L 64.929155 41.386075 
z
" clip-path="url(#p578953d9ef)" style="fill: #fa4d56; stroke: #fa4d56; stroke-width: 0.75; stroke-linejoin: miter"/>
   </g>
   <g id="patch_41">
    <path d="M 64.929155 79.628124 
L 79.994205 79.628124 
L 79.994205 64.563074 
L 64.929155 64.563074 
z
" clip-path="url(#p578953d9ef)" style="fill: #fa4d56; stroke: #fa4d56; stroke-width: 0.75; stroke-linejoin: miter"/>
   </g>
   <g id="patch_42">
    <path d="M 64.929155 102.805124 
L 79.994205 102.805124 
L 79.994205 87.740074 
L 64.929155 87.740074 
z
" clip-path="url(#p578953d9ef)" style="fill: #002d9c; stroke: #002d9c; stroke-width: 0.75; stroke-linejoin: miter"/>
   </g>
   <g id="patch_43">
    <path d="M 88.106155 102.805124 
L 103.171204 102.805124 
L 103.171204 87.740074 
L 88.106155 87.740074 
z
" clip-path="url(#p578953d9ef)" style="fill: #fa4d56; stroke: #fa4d56; stroke-width: 0.75; stroke-linejoin: miter"/>
   </g>
   <g id="patch_44">
    <path d="M 141.992679 28.001357 
C 142.591974 28.001357 143.166803 27.763255 143.590569 27.33949 
C 144.014334 26.915724 144.252436 26.340894 144.252436 25.7416 
C 144.252436 25.142305 144.014334 24.567475 143.590569 24.14371 
C 143.166803 23.719945 142.591974 23.481842 141.992679 23.481842 
C 141.393384 23.481842 140.818554 23.719945 140.394789 24.14371 
C 139.971024 24.567475 139.732921 25.142305 139.732921 25.7416 
C 139.732921 26.340894 139.971024 26.915724 140.394789 27.33949 
C 140.818554 27.763255 141.393384 28.001357 141.992679 28.001357 
z
" clip-path="url(#p578953d9ef)" style="fill: #002d9c; stroke: #002d9c; stroke-width: 0.75; stroke-linejoin: miter"/>
   </g>
   <g id="patch_45">
    <path d="M 141.992679 51.178357 
C 142.591974 51.178357 143.166803 50.940255 143.590569 50.516489 
C 144.014334 50.092724 144.252436 49.517894 144.252436 48.918599 
C 144.252436 48.319305 144.014334 47.744475 143.590569 47.32071 
C 143.166803 46.896944 142.591974 46.658842 141.992679 46.658842 
C 141.393384 46.658842 140.818554 46.896944 140.394789 47.32071 
C 139.971024 47.744475 139.732921 48.319305 139.732921 48.918599 
C 139.732921 49.517894 139.971024 50.092724 140.394789 50.516489 
C 140.818554 50.940255 141.393384 51.178357 141.992679 51.178357 
z
" clip-path="url(#p578953d9ef)" style="fill: #002d9c; stroke: #002d9c; stroke-width: 0.75; stroke-linejoin: miter"/>
   </g>
   <g id="patch_46">
    <path d="M 141.992679 74.355357 
C 142.591974 74.355357 143.166803 74.117254 143.590569 73.693489 
C 144.014334 73.269724 144.252436 72.694894 144.252436 72.095599 
C 144.252436 71.496304 144.014334 70.921475 143.590569 70.497709 
C 143.166803 70.073944 142.591974 69.835842 141.992679 69.835842 
C 141.393384 69.835842 140.818554 70.073944 140.394789 70.497709 
C 139.971024 70.921475 139.732921 71.496304 139.732921 72.095599 
C 139.732921 72.694894 139.971024 73.269724 140.394789 73.693489 
C 140.818554 74.117254 141.393384 74.355357 141.992679 74.355357 
z
" clip-path="url(#p578953d9ef)" style="fill: #002d9c; stroke: #002d9c; stroke-width: 0.75; stroke-linejoin: miter"/>
   </g>
   <g id="patch_47">
    <path d="M 141.992679 100.545366 
C 143.391033 100.545366 144.732303 99.989794 145.721089 99.001008 
C 146.709874 98.012223 147.265446 96.670953 147.265446 95.272599 
C 147.265446 93.874245 146.709874 92.532975 145.721089 91.544189 
C 144.732303 90.555403 143.391033 89.999831 141.992679 89.999831 
C 140.594325 89.999831 139.253055 90.555403 138.264269 91.544189 
C 137.275484 92.532975 136.719911 93.874245 136.719911 95.272599 
C 136.719911 96.670953 137.275484 98.012223 138.264269 99.001008 
C 139.253055 99.989794 140.594325 100.545366 141.992679 100.545366 
z
" clip-path="url(#p578953d9ef)" style="fill: #002d9c; stroke: #002d9c; stroke-linejoin: miter"/>
   </g>
   <g id="patch_48">
    <path d="M 180.814153 33.274125 
L 195.879203 33.274125 
L 195.879203 18.209075 
L 180.814153 18.209075 
z
" clip-path="url(#p578953d9ef)" style="fill: #fa4d56; stroke: #fa4d56; stroke-width: 0.75; stroke-linejoin: miter"/>
   </g>
   <g id="patch_49">
    <path d="M 180.814153 56.451124 
L 195.879203 56.451124 
L 195.879203 41.386075 
L 180.814153 41.386075 
z
" clip-path="url(#p578953d9ef)" style="fill: #fa4d56; stroke: #fa4d56; stroke-width: 0.75; stroke-linejoin: miter"/>
   </g>
   <g id="patch_50">
    <path d="M 180.814153 79.628124 
L 195.879203 79.628124 
L 195.879203 64.563074 
L 180.814153 64.563074 
z
" clip-path="url(#p578953d9ef)" style="fill: #fa4d56; stroke: #fa4d56; stroke-width: 0.75; stroke-linejoin: miter"/>
   </g>
   <g id="patch_51">
    <path d="M 203.991153 33.274125 
L 219.056203 33.274125 
L 219.056203 18.209075 
L 203.991153 18.209075 
z
" clip-path="url(#p578953d9ef)" style="fill: #002d9c; stroke: #002d9c; stroke-width: 0.75; stroke-linejoin: miter"/>
   </g>
   <g id="patch_52">
    <path d="M 203.991153 56.451124 
L 219.056203 56.451124 
L 219.056203 41.386075 
L 203.991153 41.386075 
z
" clip-path="url(#p578953d9ef)" style="fill: #002d9c; stroke: #002d9c; stroke-width: 0.75; stroke-linejoin: miter"/>
   </g>
   <g id="patch_53">
    <path d="M 203.991153 79.628124 
L 219.056203 79.628124 
L 219.056203 64.563074 
L 203.991153 64.563074 
z
" clip-path="url(#p578953d9ef)" style="fill: #002d9c; stroke: #002d9c; stroke-width: 0.75; stroke-linejoin: miter"/>
   </g>
   <g id="patch_54">
    <path d="M 227.168153 79.628124 
L 242.233203 79.628124 
L 242.233203 64.563074 
L 227.168153 64.563074 
z
" clip-path="url(#p578953d9ef)" style="fill: #fa4d56; stroke: #fa4d56; stroke-width: 0.75; stroke-linejoin: miter"/>
   </g>
   <g id="patch_55">
    <path d="M 257.877677 28.001357 
C 258.476972 28.001357 259.051802 27.763255 259.475567 27.33949 
C 259.899333 26.915724 260.137435 26.340894 260.137435 25.7416 
C 260.137435 25.142305 259.899333 24.567475 259.475567 24.14371 
C 259.051802 23.719945 258.476972 23.481842 257.877677 23.481842 
C 257.278383 23.481842 256.703553 23.719945 256.279788 24.14371 
C 255.856022 24.567475 255.61792 25.142305 255.61792 25.7416 
C 255.61792 26.340894 255.856022 26.915724 256.279788 27.33949 
C 256.703553 27.763255 257.278383 28.001357 257.877677 28.001357 
z
" clip-path="url(#p578953d9ef)" style="fill: #002d9c; stroke: #002d9c; stroke-width: 0.75; stroke-linejoin: miter"/>
   </g>
   <g id="patch_56">
    <path d="M 257.877677 51.178357 
C 258.476972 51.178357 259.051802 50.940255 259.475567 50.516489 
C 259.899333 50.092724 260.137435 49.517894 260.137435 48.918599 
C 260.137435 48.319305 259.899333 47.744475 259.475567 47.32071 
C 259.051802 46.896944 258.476972 46.658842 257.877677 46.658842 
C 257.278383 46.658842 256.703553 46.896944 256.279788 47.32071 
C 255.856022 47.744475 255.61792 48.319305 255.61792 48.918599 
C 255.61792 49.517894 255.856022 50.092724 256.279788 50.516489 
C 256.703553 50.940255 257.278383 51.178357 257.877677 51.178357 
z
" clip-path="url(#p578953d9ef)" style="fill: #002d9c; stroke: #002d9c; stroke-width: 0.75; stroke-linejoin: miter"/>
   </g>
   <g id="patch_57">
    <path d="M 257.877677 77.368367 
C 259.276032 77.368367 260.617301 76.812795 261.606087 75.824009 
C 262.594873 74.835223 263.150445 73.493953 263.150445 72.095599 
C 263.150445 70.697245 262.594873 69.355975 261.606087 68.36719 
C 260.617301 67.378404 259.276032 66.822832 257.877677 66.822832 
C 256.479323 66.822832 255.138054 67.378404 254.149268 68.36719 
C 253.160482 69.355975 252.60491 70.697245 252.60491 72.095599 
C 252.60491 73.493953 253.160482 74.835223 254.149268 75.824009 
C 255.138054 76.812795 256.479323 77.368367 257.877677 77.368367 
z
" clip-path="url(#p578953d9ef)" style="fill: #002d9c; stroke: #002d9c; stroke-linejoin: miter"/>
   </g>
   <g id="patch_58">
    <path d="M 273.522152 79.628124 
L 288.587202 79.628124 
L 288.587202 64.563074 
L 273.522152 64.563074 
z
" clip-path="url(#p578953d9ef)" style="fill: #fa4d56; stroke: #fa4d56; stroke-width: 0.75; stroke-linejoin: miter"/>
   </g>
   <g id="patch_59">
    <path d="M 273.522152 33.274125 
L 288.587202 33.274125 
L 288.587202 18.209075 
L 273.522152 18.209075 
z
" clip-path="url(#p578953d9ef)" style="fill: #002d9c; stroke: #002d9c; stroke-width: 0.75; stroke-linejoin: miter"/>
   </g>
   <g id="patch_60">
    <path d="M 273.522152 56.451124 
L 288.587202 56.451124 
L 288.587202 41.386075 
L 273.522152 41.386075 
z
" clip-path="url(#p578953d9ef)" style="fill: #002d9c; stroke: #002d9c; stroke-width: 0.75; stroke-linejoin: miter"/>
   </g>
   <g id="patch_61">
    <path d="M 296.699152 79.628124 
L 311.764202 79.628124 
L 311.764202 64.563074 
L 296.699152 64.563074 
z
" clip-path="url(#p578953d9ef)" style="fill: #002d9c; stroke: #002d9c; stroke-width: 0.75; stroke-linejoin: miter"/>
   </g>
   <g id="patch_62">
    <path d="M 296.699152 33.274125 
L 311.764202 33.274125 
L 311.764202 18.209075 
L 296.699152 18.209075 
z
" clip-path="url(#p578953d9ef)" style="fill: #fa4d56; stroke: #fa4d56; stroke-width: 0.75; stroke-linejoin: miter"/>
   </g>
   <g id="patch_63">
    <path d="M 296.699152 56.451124 
L 311.764202 56.451124 
L 311.764202 41.386075 
L 296.699152 41.386075 
z
" clip-path="url(#p578953d9ef)" style="fill: #fa4d56; stroke: #fa4d56; stroke-width: 0.75; stroke-linejoin: miter"/>
   </g>
   <g id="patch_64">
    <path d="M 319.876152 79.628124 
L 334.941201 79.628124 
L 334.941201 64.563074 
L 319.876152 64.563074 
z
" clip-path="url(#p578953d9ef)" style="fill: #fa4d56; stroke: #fa4d56; stroke-width: 0.75; stroke-linejoin: miter"/>
   </g>
   <g id="patch_65">
    <path d="M 373.762676 28.001357 
C 374.361971 28.001357 374.9368 27.763255 375.360566 27.33949 
C 375.784331 26.915724 376.022433 26.340894 376.022433 25.7416 
C 376.022433 25.142305 375.784331 24.567475 375.360566 24.14371 
C 374.9368 23.719945 374.361971 23.481842 373.762676 23.481842 
C 373.163381 23.481842 372.588551 23.719945 372.164786 24.14371 
C 371.741021 24.567475 371.502918 25.142305 371.502918 25.7416 
C 371.502918 26.340894 371.741021 26.915724 372.164786 27.33949 
C 372.588551 27.763255 373.163381 28.001357 373.762676 28.001357 
z
" clip-path="url(#p578953d9ef)" style="fill: #002d9c; stroke: #002d9c; stroke-width: 0.75; stroke-linejoin: miter"/>
   </g>
   <g id="patch_66">
    <path d="M 373.762676 51.178357 
C 374.361971 51.178357 374.9368 50.940255 375.360566 50.516489 
C 375.784331 50.092724 376.022433 49.517894 376.022433 48.918599 
C 376.022433 48.319305 375.784331 47.744475 375.360566 47.32071 
C 374.9368 46.896944 374.361971 46.658842 373.762676 46.658842 
C 373.163381 46.658842 372.588551 46.896944 372.164786 47.32071 
C 371.741021 47.744475 371.502918 48.319305 371.502918 48.918599 
C 371.502918 49.517894 371.741021 50.092724 372.164786 50.516489 
C 372.588551 50.940255 373.163381 51.178357 373.762676 51.178357 
z
" clip-path="url(#p578953d9ef)" style="fill: #002d9c; stroke: #002d9c; stroke-width: 0.75; stroke-linejoin: miter"/>
   </g>
   <g id="patch_67">
    <path d="M 373.762676 74.355357 
C 374.361971 74.355357 374.9368 74.117254 375.360566 73.693489 
C 375.784331 73.269724 376.022433 72.694894 376.022433 72.095599 
C 376.022433 71.496304 375.784331 70.921475 375.360566 70.497709 
C 374.9368 70.073944 374.361971 69.835842 373.762676 69.835842 
C 373.163381 69.835842 372.588551 70.073944 372.164786 70.497709 
C 371.741021 70.921475 371.502918 71.496304 371.502918 72.095599 
C 371.502918 72.694894 371.741021 73.269724 372.164786 73.693489 
C 372.588551 74.117254 373.163381 74.355357 373.762676 74.355357 
z
" clip-path="url(#p578953d9ef)" style="fill: #002d9c; stroke: #002d9c; stroke-width: 0.75; stroke-linejoin: miter"/>
   </g>
   <g id="patch_68">
    <path d="M 373.762676 100.545366 
C 375.16103 100.545366 376.5023 99.989794 377.491085 99.001008 
C 378.479871 98.012223 379.035443 96.670953 379.035443 95.272599 
C 379.035443 93.874245 378.479871 92.532975 377.491085 91.544189 
C 376.5023 90.555403 375.16103 89.999831 373.762676 89.999831 
C 372.364322 89.999831 371.023052 90.555403 370.034266 91.544189 
C 369.04548 92.532975 368.489908 93.874245 368.489908 95.272599 
C 368.489908 96.670953 369.04548 98.012223 370.034266 99.001008 
C 371.023052 99.989794 372.364322 100.545366 373.762676 100.545366 
z
" clip-path="url(#p578953d9ef)" style="fill: #002d9c; stroke: #002d9c; stroke-linejoin: miter"/>
   </g>
   <g id="patch_69">
    <path d="M 412.58415 33.274125 
L 427.6492 33.274125 
L 427.6492 18.209075 
L 412.58415 18.209075 
z
" clip-path="url(#p578953d9ef)" style="fill: #fa4d56; stroke: #fa4d56; stroke-width: 0.75; stroke-linejoin: miter"/>
   </g>
   <g id="patch_70">
    <path d="M 412.58415 56.451124 
L 427.6492 56.451124 
L 427.6492 41.386075 
L 412.58415 41.386075 
z
" clip-path="url(#p578953d9ef)" style="fill: #fa4d56; stroke: #fa4d56; stroke-width: 0.75; stroke-linejoin: miter"/>
   </g>
   <g id="patch_71">
    <path d="M 412.58415 79.628124 
L 427.6492 79.628124 
L 427.6492 64.563074 
L 412.58415 64.563074 
z
" clip-path="url(#p578953d9ef)" style="fill: #fa4d56; stroke: #fa4d56; stroke-width: 0.75; stroke-linejoin: miter"/>
   </g>
   <g id="patch_72">
    <path d="M 435.76115 33.274125 
L 450.8262 33.274125 
L 450.8262 18.209075 
L 435.76115 18.209075 
z
" clip-path="url(#p578953d9ef)" style="fill: #002d9c; stroke: #002d9c; stroke-width: 0.75; stroke-linejoin: miter"/>
   </g>
   <g id="patch_73">
    <path d="M 435.76115 56.451124 
L 450.8262 56.451124 
L 450.8262 41.386075 
L 435.76115 41.386075 
z
" clip-path="url(#p578953d9ef)" style="fill: #002d9c; stroke: #002d9c; stroke-width: 0.75; stroke-linejoin: miter"/>
   </g>
   <g id="patch_74">
    <path d="M 435.76115 79.628124 
L 450.8262 79.628124 
L 450.8262 64.563074 
L 435.76115 64.563074 
z
" clip-path="url(#p578953d9ef)" style="fill: #002d9c; stroke: #002d9c; stroke-width: 0.75; stroke-linejoin: miter"/>
   </g>
   <g id="patch_75">
    <path d="M 458.93815 79.628124 
L 474.0032 79.628124 
L 474.0032 64.563074 
L 458.93815 64.563074 
z
" clip-path="url(#p578953d9ef)" style="fill: #fa4d56; stroke: #fa4d56; stroke-width: 0.75; stroke-linejoin: miter"/>
   </g>
   <g id="patch_76">
    <path d="M 489.647674 28.001357 
C 490.246969 28.001357 490.821799 27.763255 491.245564 27.33949 
C 491.669329 26.915724 491.907432 26.340894 491.907432 25.7416 
C 491.907432 25.142305 491.669329 24.567475 491.245564 24.14371 
C 490.821799 23.719945 490.246969 23.481842 489.647674 23.481842 
C 489.04838 23.481842 488.47355 23.719945 488.049784 24.14371 
C 487.626019 24.567475 487.387917 25.142305 487.387917 25.7416 
C 487.387917 26.340894 487.626019 26.915724 488.049784 27.33949 
C 488.47355 27.763255 489.04838 28.001357 489.647674 28.001357 
z
" clip-path="url(#p578953d9ef)" style="fill: #002d9c; stroke: #002d9c; stroke-width: 0.75; stroke-linejoin: miter"/>
   </g>
   <g id="patch_77">
    <path d="M 489.647674 51.178357 
C 490.246969 51.178357 490.821799 50.940255 491.245564 50.516489 
C 491.669329 50.092724 491.907432 49.517894 491.907432 48.918599 
C 491.907432 48.319305 491.669329 47.744475 491.245564 47.32071 
C 490.821799 46.896944 490.246969 46.658842 489.647674 46.658842 
C 489.04838 46.658842 488.47355 46.896944 488.049784 47.32071 
C 487.626019 47.744475 487.387917 48.319305 487.387917 48.918599 
C 487.387917 49.517894 487.626019 50.092724 488.049784 50.516489 
C 488.47355 50.940255 489.04838 51.178357 489.647674 51.178357 
z
" clip-path="url(#p578953d9ef)" style="fill: #002d9c; stroke: #002d9c; stroke-width: 0.75; stroke-linejoin: miter"/>
   </g>
   <g id="patch_78">
    <path d="M 489.647674 77.368367 
C 491.046029 77.368367 492.387298 76.812795 493.376084 75.824009 
C 494.36487 74.835223 494.920442 73.493953 494.920442 72.095599 
C 494.920442 70.697245 494.36487 69.355975 493.376084 68.36719 
C 492.387298 67.378404 491.046029 66.822832 489.647674 66.822832 
C 488.24932 66.822832 486.90805 67.378404 485.919265 68.36719 
C 484.930479 69.355975 484.374907 70.697245 484.374907 72.095599 
C 484.374907 73.493953 484.930479 74.835223 485.919265 75.824009 
C 486.90805 76.812795 488.24932 77.368367 489.647674 77.368367 
z
" clip-path="url(#p578953d9ef)" style="fill: #002d9c; stroke: #002d9c; stroke-linejoin: miter"/>
   </g>
   <g id="patch_79">
    <path d="M 505.292149 79.628124 
L 520.357199 79.628124 
L 520.357199 64.563074 
L 505.292149 64.563074 
z
" clip-path="url(#p578953d9ef)" style="fill: #fa4d56; stroke: #fa4d56; stroke-width: 0.75; stroke-linejoin: miter"/>
   </g>
   <g id="patch_80">
    <path d="M 505.292149 33.274125 
L 520.357199 33.274125 
L 520.357199 18.209075 
L 505.292149 18.209075 
z
" clip-path="url(#p578953d9ef)" style="fill: #002d9c; stroke: #002d9c; stroke-width: 0.75; stroke-linejoin: miter"/>
   </g>
   <g id="patch_81">
    <path d="M 505.292149 56.451124 
L 520.357199 56.451124 
L 520.357199 41.386075 
L 505.292149 41.386075 
z
" clip-path="url(#p578953d9ef)" style="fill: #002d9c; stroke: #002d9c; stroke-width: 0.75; stroke-linejoin: miter"/>
   </g>
   <g id="patch_82">
    <path d="M 528.469149 79.628124 
L 543.534199 79.628124 
L 543.534199 64.563074 
L 528.469149 64.563074 
z
" clip-path="url(#p578953d9ef)" style="fill: #002d9c; stroke: #002d9c; stroke-width: 0.75; stroke-linejoin: miter"/>
   </g>
   <g id="patch_83">
    <path d="M 528.469149 33.274125 
L 543.534199 33.274125 
L 543.534199 18.209075 
L 528.469149 18.209075 
z
" clip-path="url(#p578953d9ef)" style="fill: #fa4d56; stroke: #fa4d56; stroke-width: 0.75; stroke-linejoin: miter"/>
   </g>
   <g id="patch_84">
    <path d="M 528.469149 56.451124 
L 543.534199 56.451124 
L 543.534199 41.386075 
L 528.469149 41.386075 
z
" clip-path="url(#p578953d9ef)" style="fill: #fa4d56; stroke: #fa4d56; stroke-width: 0.75; stroke-linejoin: miter"/>
   </g>
   <g id="patch_85">
    <path d="M 551.646148 79.628124 
L 566.711198 79.628124 
L 566.711198 64.563074 
L 551.646148 64.563074 
z
" clip-path="url(#p578953d9ef)" style="fill: #fa4d56; stroke: #fa4d56; stroke-width: 0.75; stroke-linejoin: miter"/>
   </g>
   <g id="patch_86">
    <path d="M 605.532673 28.001357 
C 606.131967 28.001357 606.706797 27.763255 607.130563 27.33949 
C 607.554328 26.915724 607.79243 26.340894 607.79243 25.7416 
C 607.79243 25.142305 607.554328 24.567475 607.130563 24.14371 
C 606.706797 23.719945 606.131967 23.481842 605.532673 23.481842 
C 604.933378 23.481842 604.358548 23.719945 603.934783 24.14371 
C 603.511018 24.567475 603.272915 25.142305 603.272915 25.7416 
C 603.272915 26.340894 603.511018 26.915724 603.934783 27.33949 
C 604.358548 27.763255 604.933378 28.001357 605.532673 28.001357 
z
" clip-path="url(#p578953d9ef)" style="fill: #002d9c; stroke: #002d9c; stroke-width: 0.75; stroke-linejoin: miter"/>
   </g>
   <g id="patch_87">
    <path d="M 605.532673 51.178357 
C 606.131967 51.178357 606.706797 50.940255 607.130563 50.516489 
C 607.554328 50.092724 607.79243 49.517894 607.79243 48.918599 
C 607.79243 48.319305 607.554328 47.744475 607.130563 47.32071 
C 606.706797 46.896944 606.131967 46.658842 605.532673 46.658842 
C 604.933378 46.658842 604.358548 46.896944 603.934783 47.32071 
C 603.511018 47.744475 603.272915 48.319305 603.272915 48.918599 
C 603.272915 49.517894 603.511018 50.092724 603.934783 50.516489 
C 604.358548 50.940255 604.933378 51.178357 605.532673 51.178357 
z
" clip-path="url(#p578953d9ef)" style="fill: #002d9c; stroke: #002d9c; stroke-width: 0.75; stroke-linejoin: miter"/>
   </g>
   <g id="patch_88">
    <path d="M 605.532673 74.355357 
C 606.131967 74.355357 606.706797 74.117254 607.130563 73.693489 
C 607.554328 73.269724 607.79243 72.694894 607.79243 72.095599 
C 607.79243 71.496304 607.554328 70.921475 607.130563 70.497709 
C 606.706797 70.073944 606.131967 69.835842 605.532673 69.835842 
C 604.933378 69.835842 604.358548 70.073944 603.934783 70.497709 
C 603.511018 70.921475 603.272915 71.496304 603.272915 72.095599 
C 603.272915 72.694894 603.511018 73.269724 603.934783 73.693489 
C 604.358548 74.117254 604.933378 74.355357 605.532673 74.355357 
z
" clip-path="url(#p578953d9ef)" style="fill: #002d9c; stroke: #002d9c; stroke-width: 0.75; stroke-linejoin: miter"/>
   </g>
   <g id="patch_89">
    <path d="M 605.532673 100.545366 
C 606.931027 100.545366 608.272297 99.989794 609.261082 99.001008 
C 610.249868 98.012223 610.80544 96.670953 610.80544 95.272599 
C 610.80544 93.874245 610.249868 92.532975 609.261082 91.544189 
C 608.272297 90.555403 606.931027 89.999831 605.532673 89.999831 
C 604.134318 89.999831 602.793049 90.555403 601.804263 91.544189 
C 600.815477 92.532975 600.259905 93.874245 600.259905 95.272599 
C 600.259905 96.670953 600.815477 98.012223 601.804263 99.001008 
C 602.793049 99.989794 604.134318 100.545366 605.532673 100.545366 
z
" clip-path="url(#p578953d9ef)" style="fill: #002d9c; stroke: #002d9c; stroke-linejoin: miter"/>
   </g>
   <g id="patch_90">
    <path d="M 644.354147 33.274125 
L 659.419197 33.274125 
L 659.419197 18.209075 
L 644.354147 18.209075 
z
" clip-path="url(#p578953d9ef)" style="fill: #fa4d56; stroke: #fa4d56; stroke-width: 0.75; stroke-linejoin: miter"/>
   </g>
   <g id="patch_91">
    <path d="M 644.354147 56.451124 
L 659.419197 56.451124 
L 659.419197 41.386075 
L 644.354147 41.386075 
z
" clip-path="url(#p578953d9ef)" style="fill: #fa4d56; stroke: #fa4d56; stroke-width: 0.75; stroke-linejoin: miter"/>
   </g>
   <g id="patch_92">
    <path d="M 644.354147 79.628124 
L 659.419197 79.628124 
L 659.419197 64.563074 
L 644.354147 64.563074 
z
" clip-path="url(#p578953d9ef)" style="fill: #fa4d56; stroke: #fa4d56; stroke-width: 0.75; stroke-linejoin: miter"/>
   </g>
   <g id="patch_93">
    <path d="M 667.531147 33.274125 
L 682.596197 33.274125 
L 682.596197 18.209075 
L 667.531147 18.209075 
z
" clip-path="url(#p578953d9ef)" style="fill: #002d9c; stroke: #002d9c; stroke-width: 0.75; stroke-linejoin: miter"/>
   </g>
   <g id="patch_94">
    <path d="M 667.531147 56.451124 
L 682.596197 56.451124 
L 682.596197 41.386075 
L 667.531147 41.386075 
z
" clip-path="url(#p578953d9ef)" style="fill: #002d9c; stroke: #002d9c; stroke-width: 0.75; stroke-linejoin: miter"/>
   </g>
   <g id="patch_95">
    <path d="M 667.531147 79.628124 
L 682.596197 79.628124 
L 682.596197 64.563074 
L 667.531147 64.563074 
z
" clip-path="url(#p578953d9ef)" style="fill: #002d9c; stroke: #002d9c; stroke-width: 0.75; stroke-linejoin: miter"/>
   </g>
   <g id="patch_96">
    <path d="M 690.708147 79.628124 
L 705.773196 79.628124 
L 705.773196 64.563074 
L 690.708147 64.563074 
z
" clip-path="url(#p578953d9ef)" style="fill: #fa4d56; stroke: #fa4d56; stroke-width: 0.75; stroke-linejoin: miter"/>
   </g>
   <g id="patch_97">
    <path d="M 721.417671 28.001357 
C 722.016966 28.001357 722.591796 27.763255 723.015561 27.33949 
C 723.439326 26.915724 723.677429 26.340894 723.677429 25.7416 
C 723.677429 25.142305 723.439326 24.567475 723.015561 24.14371 
C 722.591796 23.719945 722.016966 23.481842 721.417671 23.481842 
C 720.818377 23.481842 720.243547 23.719945 719.819781 24.14371 
C 719.396016 24.567475 719.157914 25.142305 719.157914 25.7416 
C 719.157914 26.340894 719.396016 26.915724 719.819781 27.33949 
C 720.243547 27.763255 720.818377 28.001357 721.417671 28.001357 
z
" clip-path="url(#p578953d9ef)" style="fill: #002d9c; stroke: #002d9c; stroke-width: 0.75; stroke-linejoin: miter"/>
   </g>
   <g id="patch_98">
    <path d="M 721.417671 51.178357 
C 722.016966 51.178357 722.591796 50.940255 723.015561 50.516489 
C 723.439326 50.092724 723.677429 49.517894 723.677429 48.918599 
C 723.677429 48.319305 723.439326 47.744475 723.015561 47.32071 
C 722.591796 46.896944 722.016966 46.658842 721.417671 46.658842 
C 720.818377 46.658842 720.243547 46.896944 719.819781 47.32071 
C 719.396016 47.744475 719.157914 48.319305 719.157914 48.918599 
C 719.157914 49.517894 719.396016 50.092724 719.819781 50.516489 
C 720.243547 50.940255 720.818377 51.178357 721.417671 51.178357 
z
" clip-path="url(#p578953d9ef)" style="fill: #002d9c; stroke: #002d9c; stroke-width: 0.75; stroke-linejoin: miter"/>
   </g>
   <g id="patch_99">
    <path d="M 721.417671 77.368367 
C 722.816025 77.368367 724.157295 76.812795 725.146081 75.824009 
C 726.134867 74.835223 726.690439 73.493953 726.690439 72.095599 
C 726.690439 70.697245 726.134867 69.355975 725.146081 68.36719 
C 724.157295 67.378404 722.816025 66.822832 721.417671 66.822832 
C 720.019317 66.822832 718.678047 67.378404 717.689262 68.36719 
C 716.700476 69.355975 716.144904 70.697245 716.144904 72.095599 
C 716.144904 73.493953 716.700476 74.835223 717.689262 75.824009 
C 718.678047 76.812795 720.019317 77.368367 721.417671 77.368367 
z
" clip-path="url(#p578953d9ef)" style="fill: #002d9c; stroke: #002d9c; stroke-linejoin: miter"/>
   </g>
   <g id="patch_100">
    <path d="M 737.062146 79.628124 
L 752.127196 79.628124 
L 752.127196 64.563074 
L 737.062146 64.563074 
z
" clip-path="url(#p578953d9ef)" style="fill: #fa4d56; stroke: #fa4d56; stroke-width: 0.75; stroke-linejoin: miter"/>
   </g>
   <g id="patch_101">
    <path d="M 737.062146 33.274125 
L 752.127196 33.274125 
L 752.127196 18.209075 
L 737.062146 18.209075 
z
" clip-path="url(#p578953d9ef)" style="fill: #002d9c; stroke: #002d9c; stroke-width: 0.75; stroke-linejoin: miter"/>
   </g>
   <g id="patch_102">
    <path d="M 737.062146 56.451124 
L 752.127196 56.451124 
L 752.127196 41.386075 
L 737.062146 41.386075 
z
" clip-path="url(#p578953d9ef)" style="fill: #002d9c; stroke: #002d9c; stroke-width: 0.75; stroke-linejoin: miter"/>
   </g>
   <g id="patch_103">
    <path d="M 760.239146 79.628124 
L 775.304196 79.628124 
L 775.304196 64.563074 
L 760.239146 64.563074 
z
" clip-path="url(#p578953d9ef)" style="fill: #002d9c; stroke: #002d9c; stroke-width: 0.75; stroke-linejoin: miter"/>
   </g>
   <g id="patch_104">
    <path d="M 760.239146 33.274125 
L 775.304196 33.274125 
L 775.304196 18.209075 
L 760.239146 18.209075 
z
" clip-path="url(#p578953d9ef)" style="fill: #fa4d56; stroke: #fa4d56; stroke-width: 0.75; stroke-linejoin: miter"/>
   </g>
   <g id="patch_105">
    <path d="M 760.239146 56.451124 
L 775.304196 56.451124 
L 775.304196 41.386075 
L 760.239146 41.386075 
z
" clip-path="url(#p578953d9ef)" style="fill: #fa4d56; stroke: #fa4d56; stroke-width: 0.75; stroke-linejoin: miter"/>
   </g>
   <g id="patch_106">
    <path d="M 783.416145 79.628124 
L 798.481195 79.628124 
L 798.481195 64.563074 
L 783.416145 64.563074 
z
" clip-path="url(#p578953d9ef)" style="fill: #fa4d56; stroke: #fa4d56; stroke-width: 0.75; stroke-linejoin: miter"/>
   </g>
   <g id="patch_107">
    <path d="M 837.30267 28.001357 
C 837.901964 28.001357 838.476794 27.763255 838.90056 27.33949 
C 839.324325 26.915724 839.562427 26.340894 839.562427 25.7416 
C 839.562427 25.142305 839.324325 24.567475 838.90056 24.14371 
C 838.476794 23.719945 837.901964 23.481842 837.30267 23.481842 
C 836.703375 23.481842 836.128545 23.719945 835.70478 24.14371 
C 835.281015 24.567475 835.042912 25.142305 835.042912 25.7416 
C 835.042912 26.340894 835.281015 26.915724 835.70478 27.33949 
C 836.128545 27.763255 836.703375 28.001357 837.30267 28.001357 
z
" clip-path="url(#p578953d9ef)" style="fill: #002d9c; stroke: #002d9c; stroke-width: 0.75; stroke-linejoin: miter"/>
   </g>
   <g id="patch_108">
    <path d="M 837.30267 51.178357 
C 837.901964 51.178357 838.476794 50.940255 838.90056 50.516489 
C 839.324325 50.092724 839.562427 49.517894 839.562427 48.918599 
C 839.562427 48.319305 839.324325 47.744475 838.90056 47.32071 
C 838.476794 46.896944 837.901964 46.658842 837.30267 46.658842 
C 836.703375 46.658842 836.128545 46.896944 835.70478 47.32071 
C 835.281015 47.744475 835.042912 48.319305 835.042912 48.918599 
C 835.042912 49.517894 835.281015 50.092724 835.70478 50.516489 
C 836.128545 50.940255 836.703375 51.178357 837.30267 51.178357 
z
" clip-path="url(#p578953d9ef)" style="fill: #002d9c; stroke: #002d9c; stroke-width: 0.75; stroke-linejoin: miter"/>
   </g>
   <g id="patch_109">
    <path d="M 837.30267 74.355357 
C 837.901964 74.355357 838.476794 74.117254 838.90056 73.693489 
C 839.324325 73.269724 839.562427 72.694894 839.562427 72.095599 
C 839.562427 71.496304 839.324325 70.921475 838.90056 70.497709 
C 838.476794 70.073944 837.901964 69.835842 837.30267 69.835842 
C 836.703375 69.835842 836.128545 70.073944 835.70478 70.497709 
C 835.281015 70.921475 835.042912 71.496304 835.042912 72.095599 
C 835.042912 72.694894 835.281015 73.269724 835.70478 73.693489 
C 836.128545 74.117254 836.703375 74.355357 837.30267 74.355357 
z
" clip-path="url(#p578953d9ef)" style="fill: #002d9c; stroke: #002d9c; stroke-width: 0.75; stroke-linejoin: miter"/>
   </g>
   <g id="patch_110">
    <path d="M 837.30267 100.545366 
C 838.701024 100.545366 840.042294 99.989794 841.031079 99.001008 
C 842.019865 98.012223 842.575437 96.670953 842.575437 95.272599 
C 842.575437 93.874245 842.019865 92.532975 841.031079 91.544189 
C 840.042294 90.555403 838.701024 89.999831 837.30267 89.999831 
C 835.904315 89.999831 834.563046 90.555403 833.57426 91.544189 
C 832.585474 92.532975 832.029902 93.874245 832.029902 95.272599 
C 832.029902 96.670953 832.585474 98.012223 833.57426 99.001008 
C 834.563046 99.989794 835.904315 100.545366 837.30267 100.545366 
z
" clip-path="url(#p578953d9ef)" style="fill: #002d9c; stroke: #002d9c; stroke-linejoin: miter"/>
   </g>
   <g id="patch_111">
    <path d="M 876.124144 33.274125 
L 891.189194 33.274125 
L 891.189194 18.209075 
L 876.124144 18.209075 
z
" clip-path="url(#p578953d9ef)" style="fill: #fa4d56; stroke: #fa4d56; stroke-width: 0.75; stroke-linejoin: miter"/>
   </g>
   <g id="patch_112">
    <path d="M 876.124144 56.451124 
L 891.189194 56.451124 
L 891.189194 41.386075 
L 876.124144 41.386075 
z
" clip-path="url(#p578953d9ef)" style="fill: #fa4d56; stroke: #fa4d56; stroke-width: 0.75; stroke-linejoin: miter"/>
   </g>
   <g id="patch_113">
    <path d="M 876.124144 79.628124 
L 891.189194 79.628124 
L 891.189194 64.563074 
L 876.124144 64.563074 
z
" clip-path="url(#p578953d9ef)" style="fill: #fa4d56; stroke: #fa4d56; stroke-width: 0.75; stroke-linejoin: miter"/>
   </g>
   <g id="patch_114">
    <path d="M 899.301144 33.274125 
L 914.366194 33.274125 
L 914.366194 18.209075 
L 899.301144 18.209075 
z
" clip-path="url(#p578953d9ef)" style="fill: #002d9c; stroke: #002d9c; stroke-width: 0.75; stroke-linejoin: miter"/>
   </g>
   <g id="patch_115">
    <path d="M 899.301144 56.451124 
L 914.366194 56.451124 
L 914.366194 41.386075 
L 899.301144 41.386075 
z
" clip-path="url(#p578953d9ef)" style="fill: #002d9c; stroke: #002d9c; stroke-width: 0.75; stroke-linejoin: miter"/>
   </g>
   <g id="patch_116">
    <path d="M 899.301144 79.628124 
L 914.366194 79.628124 
L 914.366194 64.563074 
L 899.301144 64.563074 
z
" clip-path="url(#p578953d9ef)" style="fill: #002d9c; stroke: #002d9c; stroke-width: 0.75; stroke-linejoin: miter"/>
   </g>
   <g id="patch_117">
    <path d="M 922.478144 79.628124 
L 937.543193 79.628124 
L 937.543193 64.563074 
L 922.478144 64.563074 
z
" clip-path="url(#p578953d9ef)" style="fill: #fa4d56; stroke: #fa4d56; stroke-width: 0.75; stroke-linejoin: miter"/>
   </g>
   <g id="patch_118">
    <path d="M 953.187668 28.001357 
C 953.786963 28.001357 954.361793 27.763255 954.785558 27.33949 
C 955.209323 26.915724 955.447426 26.340894 955.447426 25.7416 
C 955.447426 25.142305 955.209323 24.567475 954.785558 24.14371 
C 954.361793 23.719945 953.786963 23.481842 953.187668 23.481842 
C 952.588373 23.481842 952.013544 23.719945 951.589778 24.14371 
C 951.166013 24.567475 950.927911 25.142305 950.927911 25.7416 
C 950.927911 26.340894 951.166013 26.915724 951.589778 27.33949 
C 952.013544 27.763255 952.588373 28.001357 953.187668 28.001357 
z
" clip-path="url(#p578953d9ef)" style="fill: #002d9c; stroke: #002d9c; stroke-width: 0.75; stroke-linejoin: miter"/>
   </g>
   <g id="patch_119">
    <path d="M 953.187668 51.178357 
C 953.786963 51.178357 954.361793 50.940255 954.785558 50.516489 
C 955.209323 50.092724 955.447426 49.517894 955.447426 48.918599 
C 955.447426 48.319305 955.209323 47.744475 954.785558 47.32071 
C 954.361793 46.896944 953.786963 46.658842 953.187668 46.658842 
C 952.588373 46.658842 952.013544 46.896944 951.589778 47.32071 
C 951.166013 47.744475 950.927911 48.319305 950.927911 48.918599 
C 950.927911 49.517894 951.166013 50.092724 951.589778 50.516489 
C 952.013544 50.940255 952.588373 51.178357 953.187668 51.178357 
z
" clip-path="url(#p578953d9ef)" style="fill: #002d9c; stroke: #002d9c; stroke-width: 0.75; stroke-linejoin: miter"/>
   </g>
   <g id="patch_120">
    <path d="M 953.187668 77.368367 
C 954.586022 77.368367 955.927292 76.812795 956.916078 75.824009 
C 957.904864 74.835223 958.460436 73.493953 958.460436 72.095599 
C 958.460436 70.697245 957.904864 69.355975 956.916078 68.36719 
C 955.927292 67.378404 954.586022 66.822832 953.187668 66.822832 
C 951.789314 66.822832 950.448044 67.378404 949.459259 68.36719 
C 948.470473 69.355975 947.914901 70.697245 947.914901 72.095599 
C 947.914901 73.493953 948.470473 74.835223 949.459259 75.824009 
C 950.448044 76.812795 951.789314 77.368367 953.187668 77.368367 
z
" clip-path="url(#p578953d9ef)" style="fill: #002d9c; stroke: #002d9c; stroke-linejoin: miter"/>
   </g>
   <g id="patch_121">
    <path d="M 968.832143 79.628124 
L 983.897193 79.628124 
L 983.897193 64.563074 
L 968.832143 64.563074 
z
" clip-path="url(#p578953d9ef)" style="fill: #fa4d56; stroke: #fa4d56; stroke-width: 0.75; stroke-linejoin: miter"/>
   </g>
   <g id="patch_122">
    <path d="M 968.832143 33.274125 
L 983.897193 33.274125 
L 983.897193 18.209075 
L 968.832143 18.209075 
z
" clip-path="url(#p578953d9ef)" style="fill: #002d9c; stroke: #002d9c; stroke-width: 0.75; stroke-linejoin: miter"/>
   </g>
   <g id="patch_123">
    <path d="M 968.832143 56.451124 
L 983.897193 56.451124 
L 983.897193 41.386075 
L 968.832143 41.386075 
z
" clip-path="url(#p578953d9ef)" style="fill: #002d9c; stroke: #002d9c; stroke-width: 0.75; stroke-linejoin: miter"/>
   </g>
   <g id="patch_124">
    <path d="M 992.009143 79.628124 
L 1007.074192 79.628124 
L 1007.074192 64.563074 
L 992.009143 64.563074 
z
" clip-path="url(#p578953d9ef)" style="fill: #002d9c; stroke: #002d9c; stroke-width: 0.75; stroke-linejoin: miter"/>
   </g>
   <g id="patch_125">
    <path d="M 992.009143 33.274125 
L 1007.074192 33.274125 
L 1007.074192 18.209075 
L 992.009143 18.209075 
z
" clip-path="url(#p578953d9ef)" style="fill: #fa4d56; stroke: #fa4d56; stroke-width: 0.75; stroke-linejoin: miter"/>
   </g>
   <g id="patch_126">
    <path d="M 992.009143 56.451124 
L 1007.074192 56.451124 
L 1007.074192 41.386075 
L 992.009143 41.386075 
z
" clip-path="url(#p578953d9ef)" style="fill: #fa4d56; stroke: #fa4d56; stroke-width: 0.75; stroke-linejoin: miter"/>
   </g>
   <g id="patch_127">
    <path d="M 1015.186142 79.628124 
L 1030.251192 79.628124 
L 1030.251192 64.563074 
L 1015.186142 64.563074 
z
" clip-path="url(#p578953d9ef)" style="fill: #fa4d56; stroke: #fa4d56; stroke-width: 0.75; stroke-linejoin: miter"/>
   </g>
   <g id="patch_128">
    <path d="M 1061.540142 102.805124 
L 1076.605192 102.805124 
L 1076.605192 87.740074 
L 1061.540142 87.740074 
z
" clip-path="url(#p578953d9ef)" style="fill: #fa4d56; stroke: #fa4d56; stroke-width: 0.75; stroke-linejoin: miter"/>
   </g>
   <g id="patch_129">
    <path d="M 1084.717141 102.805124 
L 1099.782191 102.805124 
L 1099.782191 87.740074 
L 1084.717141 87.740074 
z
" clip-path="url(#p578953d9ef)" style="fill: #002d9c; stroke: #002d9c; stroke-width: 0.75; stroke-linejoin: miter"/>
   </g>
   <g id="line2d_13">
    <path d="M 141.992679 98.285609 
L 141.992679 92.259589 
" clip-path="url(#p578953d9ef)" style="fill: none; stroke: #ffffff; stroke-linecap: square"/>
   </g>
   <g id="line2d_14">
    <path d="M 138.979669 95.272599 
L 145.005689 95.272599 
" clip-path="url(#p578953d9ef)" style="fill: none; stroke: #ffffff; stroke-linecap: square"/>
   </g>
   <g id="line2d_15">
    <path d="M 257.877677 75.108609 
L 257.877677 69.082589 
" clip-path="url(#p578953d9ef)" style="fill: none; stroke: #ffffff; stroke-linecap: square"/>
   </g>
   <g id="line2d_16">
    <path d="M 254.864667 72.095599 
L 260.890687 72.095599 
" clip-path="url(#p578953d9ef)" style="fill: none; stroke: #ffffff; stroke-linecap: square"/>
   </g>
   <g id="line2d_17">
    <path d="M 373.762676 98.285609 
L 373.762676 92.259589 
" clip-path="url(#p578953d9ef)" style="fill: none; stroke: #ffffff; stroke-linecap: square"/>
   </g>
   <g id="line2d_18">
    <path d="M 370.749666 95.272599 
L 376.775686 95.272599 
" clip-path="url(#p578953d9ef)" style="fill: none; stroke: #ffffff; stroke-linecap: square"/>
   </g>
   <g id="line2d_19">
    <path d="M 489.647674 75.108609 
L 489.647674 69.082589 
" clip-path="url(#p578953d9ef)" style="fill: none; stroke: #ffffff; stroke-linecap: square"/>
   </g>
   <g id="line2d_20">
    <path d="M 486.634664 72.095599 
L 492.660684 72.095599 
" clip-path="url(#p578953d9ef)" style="fill: none; stroke: #ffffff; stroke-linecap: square"/>
   </g>
   <g id="line2d_21">
    <path d="M 605.532673 98.285609 
L 605.532673 92.259589 
" clip-path="url(#p578953d9ef)" style="fill: none; stroke: #ffffff; stroke-linecap: square"/>
   </g>
   <g id="line2d_22">
    <path d="M 602.519663 95.272599 
L 608.545683 95.272599 
" clip-path="url(#p578953d9ef)" style="fill: none; stroke: #ffffff; stroke-linecap: square"/>
   </g>
   <g id="line2d_23">
    <path d="M 721.417671 75.108609 
L 721.417671 69.082589 
" clip-path="url(#p578953d9ef)" style="fill: none; stroke: #ffffff; stroke-linecap: square"/>
   </g>
   <g id="line2d_24">
    <path d="M 718.404661 72.095599 
L 724.430681 72.095599 
" clip-path="url(#p578953d9ef)" style="fill: none; stroke: #ffffff; stroke-linecap: square"/>
   </g>
   <g id="line2d_25">
    <path d="M 837.30267 98.285609 
L 837.30267 92.259589 
" clip-path="url(#p578953d9ef)" style="fill: none; stroke: #ffffff; stroke-linecap: square"/>
   </g>
   <g id="line2d_26">
    <path d="M 834.28966 95.272599 
L 840.31568 95.272599 
" clip-path="url(#p578953d9ef)" style="fill: none; stroke: #ffffff; stroke-linecap: square"/>
   </g>
   <g id="line2d_27">
    <path d="M 953.187668 75.108609 
L 953.187668 69.082589 
" clip-path="url(#p578953d9ef)" style="fill: none; stroke: #ffffff; stroke-linecap: square"/>
   </g>
   <g id="line2d_28">
    <path d="M 950.174658 72.095599 
L 956.200678 72.095599 
" clip-path="url(#p578953d9ef)" style="fill: none; stroke: #ffffff; stroke-linecap: square"/>
   </g>
   <g id="text_1">
    <g clip-path="url(#p578953d9ef)">
     <!-- ${q}_{0}$ -->
     <g transform="translate(46.29195 27.967088) scale(0.08125 -0.08125)">
      <defs>
       <path id="DejaVuSans-Oblique-71" d="M 2669 525 
Q 2438 222 2123 65 
Q 1809 -91 1428 -91 
Q 897 -91 595 267 
Q 294 625 294 1253 
Q 294 1759 480 2231 
Q 666 2703 1013 3078 
Q 1238 3322 1530 3453 
Q 1822 3584 2144 3584 
Q 2531 3584 2781 3431 
Q 3031 3278 3144 2969 
L 3244 3494 
L 3822 3494 
L 2888 -1319 
L 2309 -1319 
L 2669 525 
z
M 891 1338 
Q 891 875 1084 633 
Q 1278 391 1644 391 
Q 2188 391 2572 911 
Q 2956 1431 2956 2175 
Q 2956 2625 2757 2864 
Q 2559 3103 2188 3103 
Q 1916 3103 1684 2976 
Q 1453 2850 1281 2606 
Q 1100 2350 995 2006 
Q 891 1663 891 1338 
z
" transform="scale(0.015625)"/>
       <path id="DejaVuSans-30" d="M 2034 4250 
Q 1547 4250 1301 3770 
Q 1056 3291 1056 2328 
Q 1056 1369 1301 889 
Q 1547 409 2034 409 
Q 2525 409 2770 889 
Q 3016 1369 3016 2328 
Q 3016 3291 2770 3770 
Q 2525 4250 2034 4250 
z
M 2034 4750 
Q 2819 4750 3233 4129 
Q 3647 3509 3647 2328 
Q 3647 1150 3233 529 
Q 2819 -91 2034 -91 
Q 1250 -91 836 529 
Q 422 1150 422 2328 
Q 422 3509 836 4129 
Q 1250 4750 2034 4750 
z
" transform="scale(0.015625)"/>
      </defs>
      <use xlink:href="#DejaVuSans-Oblique-71"/>
      <use xlink:href="#DejaVuSans-30" transform="translate(63.476562 -16.40625) scale(0.7)"/>
     </g>
    </g>
   </g>
   <g id="text_2">
    <g clip-path="url(#p578953d9ef)">
     <!-- ${q}_{1}$ -->
     <g transform="translate(46.29195 51.144088) scale(0.08125 -0.08125)">
      <defs>
       <path id="DejaVuSans-31" d="M 794 531 
L 1825 531 
L 1825 4091 
L 703 3866 
L 703 4441 
L 1819 4666 
L 2450 4666 
L 2450 531 
L 3481 531 
L 3481 0 
L 794 0 
L 794 531 
z
" transform="scale(0.015625)"/>
      </defs>
      <use xlink:href="#DejaVuSans-Oblique-71"/>
      <use xlink:href="#DejaVuSans-31" transform="translate(63.476562 -16.40625) scale(0.7)"/>
     </g>
    </g>
   </g>
   <g id="text_3">
    <g clip-path="url(#p578953d9ef)">
     <!-- ${q}_{2}$ -->
     <g transform="translate(46.29195 74.321087) scale(0.08125 -0.08125)">
      <defs>
       <path id="DejaVuSans-32" d="M 1228 531 
L 3431 531 
L 3431 0 
L 469 0 
L 469 531 
Q 828 903 1448 1529 
Q 2069 2156 2228 2338 
Q 2531 2678 2651 2914 
Q 2772 3150 2772 3378 
Q 2772 3750 2511 3984 
Q 2250 4219 1831 4219 
Q 1534 4219 1204 4116 
Q 875 4013 500 3803 
L 500 4441 
Q 881 4594 1212 4672 
Q 1544 4750 1819 4750 
Q 2544 4750 2975 4387 
Q 3406 4025 3406 3419 
Q 3406 3131 3298 2873 
Q 3191 2616 2906 2266 
Q 2828 2175 2409 1742 
Q 1991 1309 1228 531 
z
" transform="scale(0.015625)"/>
      </defs>
      <use xlink:href="#DejaVuSans-Oblique-71"/>
      <use xlink:href="#DejaVuSans-32" transform="translate(63.476562 -16.40625) scale(0.7)"/>
     </g>
    </g>
   </g>
   <g id="text_4">
    <g clip-path="url(#p578953d9ef)">
     <!-- ${ancillary}$ -->
     <g transform="translate(20.77945 97.506974) scale(0.08125 -0.08125)">
      <defs>
       <path id="DejaVuSans-Oblique-61" d="M 3438 1997 
L 3047 0 
L 2472 0 
L 2578 531 
Q 2325 219 2001 64 
Q 1678 -91 1281 -91 
Q 834 -91 548 182 
Q 263 456 263 884 
Q 263 1497 752 1853 
Q 1241 2209 2100 2209 
L 2900 2209 
L 2931 2363 
Q 2938 2388 2941 2417 
Q 2944 2447 2944 2509 
Q 2944 2788 2717 2942 
Q 2491 3097 2081 3097 
Q 1800 3097 1504 3025 
Q 1209 2953 897 2809 
L 997 3341 
Q 1322 3463 1633 3523 
Q 1944 3584 2234 3584 
Q 2853 3584 3176 3315 
Q 3500 3047 3500 2534 
Q 3500 2431 3484 2292 
Q 3469 2153 3438 1997 
z
M 2816 1759 
L 2241 1759 
Q 1534 1759 1195 1570 
Q 856 1381 856 984 
Q 856 709 1029 553 
Q 1203 397 1509 397 
Q 1978 397 2328 733 
Q 2678 1069 2791 1631 
L 2816 1759 
z
" transform="scale(0.015625)"/>
       <path id="DejaVuSans-Oblique-6e" d="M 3566 2113 
L 3156 0 
L 2578 0 
L 2988 2091 
Q 3016 2238 3031 2350 
Q 3047 2463 3047 2528 
Q 3047 2791 2881 2937 
Q 2716 3084 2419 3084 
Q 1956 3084 1622 2776 
Q 1288 2469 1184 1941 
L 800 0 
L 225 0 
L 903 3500 
L 1478 3500 
L 1363 2950 
Q 1603 3253 1940 3418 
Q 2278 3584 2650 3584 
Q 3113 3584 3367 3334 
Q 3622 3084 3622 2631 
Q 3622 2519 3608 2391 
Q 3594 2263 3566 2113 
z
" transform="scale(0.015625)"/>
       <path id="DejaVuSans-Oblique-63" d="M 3431 3366 
L 3316 2797 
Q 3109 2947 2876 3022 
Q 2644 3097 2394 3097 
Q 2119 3097 1870 3000 
Q 1622 2903 1453 2725 
Q 1184 2453 1037 2087 
Q 891 1722 891 1331 
Q 891 859 1127 628 
Q 1363 397 1844 397 
Q 2081 397 2348 469 
Q 2616 541 2906 684 
L 2797 116 
Q 2547 13 2283 -39 
Q 2019 -91 1741 -91 
Q 1044 -91 669 257 
Q 294 606 294 1253 
Q 294 1797 489 2255 
Q 684 2713 1069 3078 
Q 1331 3328 1684 3456 
Q 2038 3584 2456 3584 
Q 2700 3584 2940 3529 
Q 3181 3475 3431 3366 
z
" transform="scale(0.015625)"/>
       <path id="DejaVuSans-Oblique-69" d="M 1172 4863 
L 1747 4863 
L 1606 4134 
L 1031 4134 
L 1172 4863 
z
M 909 3500 
L 1484 3500 
L 800 0 
L 225 0 
L 909 3500 
z
" transform="scale(0.015625)"/>
       <path id="DejaVuSans-Oblique-6c" d="M 1172 4863 
L 1747 4863 
L 800 0 
L 225 0 
L 1172 4863 
z
" transform="scale(0.015625)"/>
       <path id="DejaVuSans-Oblique-72" d="M 2853 2969 
Q 2766 3016 2653 3041 
Q 2541 3066 2413 3066 
Q 1953 3066 1609 2717 
Q 1266 2369 1153 1784 
L 800 0 
L 225 0 
L 909 3500 
L 1484 3500 
L 1375 2956 
Q 1603 3259 1920 3421 
Q 2238 3584 2597 3584 
Q 2691 3584 2781 3573 
Q 2872 3563 2963 3538 
L 2853 2969 
z
" transform="scale(0.015625)"/>
       <path id="DejaVuSans-Oblique-79" d="M 1588 -325 
Q 1188 -997 936 -1164 
Q 684 -1331 294 -1331 
L -159 -1331 
L -63 -850 
L 269 -850 
Q 509 -850 678 -719 
Q 847 -588 1056 -206 
L 1234 128 
L 459 3500 
L 1069 3500 
L 1650 819 
L 3256 3500 
L 3859 3500 
L 1588 -325 
z
" transform="scale(0.015625)"/>
      </defs>
      <use xlink:href="#DejaVuSans-Oblique-61" transform="translate(0 0.015625)"/>
      <use xlink:href="#DejaVuSans-Oblique-6e" transform="translate(61.279297 0.015625)"/>
      <use xlink:href="#DejaVuSans-Oblique-63" transform="translate(124.658203 0.015625)"/>
      <use xlink:href="#DejaVuSans-Oblique-69" transform="translate(179.638672 0.015625)"/>
      <use xlink:href="#DejaVuSans-Oblique-6c" transform="translate(207.421875 0.015625)"/>
      <use xlink:href="#DejaVuSans-Oblique-6c" transform="translate(235.205078 0.015625)"/>
      <use xlink:href="#DejaVuSans-Oblique-61" transform="translate(262.988281 0.015625)"/>
      <use xlink:href="#DejaVuSans-Oblique-72" transform="translate(324.267578 0.015625)"/>
      <use xlink:href="#DejaVuSans-Oblique-79" transform="translate(365.380859 0.015625)"/>
     </g>
    </g>
   </g>
   <g id="text_5">
    <g clip-path="url(#p578953d9ef)">
     <!-- H -->
     <g transform="translate(70.017578 27.535194) scale(0.065 -0.065)">
      <defs>
       <path id="DejaVuSans-48" d="M 628 4666 
L 1259 4666 
L 1259 2753 
L 3553 2753 
L 3553 4666 
L 4184 4666 
L 4184 0 
L 3553 0 
L 3553 2222 
L 1259 2222 
L 1259 0 
L 628 0 
L 628 4666 
z
" transform="scale(0.015625)"/>
      </defs>
      <use xlink:href="#DejaVuSans-48"/>
     </g>
    </g>
   </g>
   <g id="text_6">
    <g clip-path="url(#p578953d9ef)">
     <!-- H -->
     <g transform="translate(70.017578 50.712193) scale(0.065 -0.065)">
      <use xlink:href="#DejaVuSans-48"/>
     </g>
    </g>
   </g>
   <g id="text_7">
    <g clip-path="url(#p578953d9ef)">
     <!-- H -->
     <g transform="translate(70.017578 73.889193) scale(0.065 -0.065)">
      <use xlink:href="#DejaVuSans-48"/>
     </g>
    </g>
   </g>
   <g id="text_8">
    <g clip-path="url(#p578953d9ef)">
     <!-- X -->
     <g style="fill: #ffffff" transform="translate(70.23543 97.066193) scale(0.065 -0.065)">
      <defs>
       <path id="DejaVuSans-58" d="M 403 4666 
L 1081 4666 
L 2241 2931 
L 3406 4666 
L 4084 4666 
L 2584 2425 
L 4184 0 
L 3506 0 
L 2194 1984 
L 872 0 
L 191 0 
L 1856 2491 
L 403 4666 
z
" transform="scale(0.015625)"/>
      </defs>
      <use xlink:href="#DejaVuSans-58"/>
     </g>
    </g>
   </g>
   <g id="text_9">
    <g clip-path="url(#p578953d9ef)">
     <!-- H -->
     <g transform="translate(93.194578 97.066193) scale(0.065 -0.065)">
      <use xlink:href="#DejaVuSans-48"/>
     </g>
    </g>
   </g>
   <g id="line2d_29">
    <path d="M 118.815679 14.1531 
L 118.815679 37.3301 
" clip-path="url(#p578953d9ef)" style="fill: none; stroke-dasharray: 1.85,0.8; stroke-dashoffset: 0; stroke: #000000; stroke-width: 0.5"/>
   </g>
   <g id="line2d_30">
    <path d="M 118.815679 37.3301 
L 118.815679 60.507099 
" clip-path="url(#p578953d9ef)" style="fill: none; stroke-dasharray: 1.85,0.8; stroke-dashoffset: 0; stroke: #000000; stroke-width: 0.5"/>
   </g>
   <g id="line2d_31">
    <path d="M 118.815679 60.507099 
L 118.815679 83.684099 
" clip-path="url(#p578953d9ef)" style="fill: none; stroke-dasharray: 1.85,0.8; stroke-dashoffset: 0; stroke: #000000; stroke-width: 0.5"/>
   </g>
   <g id="line2d_32">
    <path d="M 118.815679 83.684099 
L 118.815679 106.861099 
" clip-path="url(#p578953d9ef)" style="fill: none; stroke-dasharray: 1.85,0.8; stroke-dashoffset: 0; stroke: #000000; stroke-width: 0.5"/>
   </g>
   <g id="line2d_33">
    <path d="M 165.169679 14.1531 
L 165.169679 37.3301 
" clip-path="url(#p578953d9ef)" style="fill: none; stroke-dasharray: 1.85,0.8; stroke-dashoffset: 0; stroke: #000000; stroke-width: 0.5"/>
   </g>
   <g id="line2d_34">
    <path d="M 165.169679 37.3301 
L 165.169679 60.507099 
" clip-path="url(#p578953d9ef)" style="fill: none; stroke-dasharray: 1.85,0.8; stroke-dashoffset: 0; stroke: #000000; stroke-width: 0.5"/>
   </g>
   <g id="line2d_35">
    <path d="M 165.169679 60.507099 
L 165.169679 83.684099 
" clip-path="url(#p578953d9ef)" style="fill: none; stroke-dasharray: 1.85,0.8; stroke-dashoffset: 0; stroke: #000000; stroke-width: 0.5"/>
   </g>
   <g id="line2d_36">
    <path d="M 165.169679 83.684099 
L 165.169679 106.861099 
" clip-path="url(#p578953d9ef)" style="fill: none; stroke-dasharray: 1.85,0.8; stroke-dashoffset: 0; stroke: #000000; stroke-width: 0.5"/>
   </g>
   <g id="text_10">
    <g clip-path="url(#p578953d9ef)">
     <!-- H -->
     <g transform="translate(185.902577 27.535194) scale(0.065 -0.065)">
      <use xlink:href="#DejaVuSans-48"/>
     </g>
    </g>
   </g>
   <g id="text_11">
    <g clip-path="url(#p578953d9ef)">
     <!-- H -->
     <g transform="translate(185.902577 50.712193) scale(0.065 -0.065)">
      <use xlink:href="#DejaVuSans-48"/>
     </g>
    </g>
   </g>
   <g id="text_12">
    <g clip-path="url(#p578953d9ef)">
     <!-- H -->
     <g transform="translate(185.902577 73.889193) scale(0.065 -0.065)">
      <use xlink:href="#DejaVuSans-48"/>
     </g>
    </g>
   </g>
   <g id="text_13">
    <g clip-path="url(#p578953d9ef)">
     <!-- X -->
     <g style="fill: #ffffff" transform="translate(209.297428 27.535194) scale(0.065 -0.065)">
      <use xlink:href="#DejaVuSans-58"/>
     </g>
    </g>
   </g>
   <g id="text_14">
    <g clip-path="url(#p578953d9ef)">
     <!-- X -->
     <g style="fill: #ffffff" transform="translate(209.297428 50.712193) scale(0.065 -0.065)">
      <use xlink:href="#DejaVuSans-58"/>
     </g>
    </g>
   </g>
   <g id="text_15">
    <g clip-path="url(#p578953d9ef)">
     <!-- X -->
     <g style="fill: #ffffff" transform="translate(209.297428 73.889193) scale(0.065 -0.065)">
      <use xlink:href="#DejaVuSans-58"/>
     </g>
    </g>
   </g>
   <g id="text_16">
    <g clip-path="url(#p578953d9ef)">
     <!-- H -->
     <g transform="translate(232.256576 73.889193) scale(0.065 -0.065)">
      <use xlink:href="#DejaVuSans-48"/>
     </g>
    </g>
   </g>
   <g id="text_17">
    <g clip-path="url(#p578953d9ef)">
     <!-- H -->
     <g transform="translate(278.610576 73.889193) scale(0.065 -0.065)">
      <use xlink:href="#DejaVuSans-48"/>
     </g>
    </g>
   </g>
   <g id="text_18">
    <g clip-path="url(#p578953d9ef)">
     <!-- X -->
     <g style="fill: #ffffff" transform="translate(278.828427 27.535194) scale(0.065 -0.065)">
      <use xlink:href="#DejaVuSans-58"/>
     </g>
    </g>
   </g>
   <g id="text_19">
    <g clip-path="url(#p578953d9ef)">
     <!-- X -->
     <g style="fill: #ffffff" transform="translate(278.828427 50.712193) scale(0.065 -0.065)">
      <use xlink:href="#DejaVuSans-58"/>
     </g>
    </g>
   </g>
   <g id="text_20">
    <g clip-path="url(#p578953d9ef)">
     <!-- X -->
     <g style="fill: #ffffff" transform="translate(302.005427 73.889193) scale(0.065 -0.065)">
      <use xlink:href="#DejaVuSans-58"/>
     </g>
    </g>
   </g>
   <g id="text_21">
    <g clip-path="url(#p578953d9ef)">
     <!-- H -->
     <g transform="translate(301.787575 27.535194) scale(0.065 -0.065)">
      <use xlink:href="#DejaVuSans-48"/>
     </g>
    </g>
   </g>
   <g id="text_22">
    <g clip-path="url(#p578953d9ef)">
     <!-- H -->
     <g transform="translate(301.787575 50.712193) scale(0.065 -0.065)">
      <use xlink:href="#DejaVuSans-48"/>
     </g>
    </g>
   </g>
   <g id="text_23">
    <g clip-path="url(#p578953d9ef)">
     <!-- H -->
     <g transform="translate(324.964575 73.889193) scale(0.065 -0.065)">
      <use xlink:href="#DejaVuSans-48"/>
     </g>
    </g>
   </g>
   <g id="line2d_37">
    <path d="M 350.585676 14.1531 
L 350.585676 37.3301 
" clip-path="url(#p578953d9ef)" style="fill: none; stroke-dasharray: 1.85,0.8; stroke-dashoffset: 0; stroke: #000000; stroke-width: 0.5"/>
   </g>
   <g id="line2d_38">
    <path d="M 350.585676 37.3301 
L 350.585676 60.507099 
" clip-path="url(#p578953d9ef)" style="fill: none; stroke-dasharray: 1.85,0.8; stroke-dashoffset: 0; stroke: #000000; stroke-width: 0.5"/>
   </g>
   <g id="line2d_39">
    <path d="M 350.585676 60.507099 
L 350.585676 83.684099 
" clip-path="url(#p578953d9ef)" style="fill: none; stroke-dasharray: 1.85,0.8; stroke-dashoffset: 0; stroke: #000000; stroke-width: 0.5"/>
   </g>
   <g id="line2d_40">
    <path d="M 350.585676 83.684099 
L 350.585676 106.861099 
" clip-path="url(#p578953d9ef)" style="fill: none; stroke-dasharray: 1.85,0.8; stroke-dashoffset: 0; stroke: #000000; stroke-width: 0.5"/>
   </g>
   <g id="line2d_41">
    <path d="M 396.939676 14.1531 
L 396.939676 37.3301 
" clip-path="url(#p578953d9ef)" style="fill: none; stroke-dasharray: 1.85,0.8; stroke-dashoffset: 0; stroke: #000000; stroke-width: 0.5"/>
   </g>
   <g id="line2d_42">
    <path d="M 396.939676 37.3301 
L 396.939676 60.507099 
" clip-path="url(#p578953d9ef)" style="fill: none; stroke-dasharray: 1.85,0.8; stroke-dashoffset: 0; stroke: #000000; stroke-width: 0.5"/>
   </g>
   <g id="line2d_43">
    <path d="M 396.939676 60.507099 
L 396.939676 83.684099 
" clip-path="url(#p578953d9ef)" style="fill: none; stroke-dasharray: 1.85,0.8; stroke-dashoffset: 0; stroke: #000000; stroke-width: 0.5"/>
   </g>
   <g id="line2d_44">
    <path d="M 396.939676 83.684099 
L 396.939676 106.861099 
" clip-path="url(#p578953d9ef)" style="fill: none; stroke-dasharray: 1.85,0.8; stroke-dashoffset: 0; stroke: #000000; stroke-width: 0.5"/>
   </g>
   <g id="text_24">
    <g clip-path="url(#p578953d9ef)">
     <!-- H -->
     <g transform="translate(417.672574 27.535194) scale(0.065 -0.065)">
      <use xlink:href="#DejaVuSans-48"/>
     </g>
    </g>
   </g>
   <g id="text_25">
    <g clip-path="url(#p578953d9ef)">
     <!-- H -->
     <g transform="translate(417.672574 50.712193) scale(0.065 -0.065)">
      <use xlink:href="#DejaVuSans-48"/>
     </g>
    </g>
   </g>
   <g id="text_26">
    <g clip-path="url(#p578953d9ef)">
     <!-- H -->
     <g transform="translate(417.672574 73.889193) scale(0.065 -0.065)">
      <use xlink:href="#DejaVuSans-48"/>
     </g>
    </g>
   </g>
   <g id="text_27">
    <g clip-path="url(#p578953d9ef)">
     <!-- X -->
     <g style="fill: #ffffff" transform="translate(441.067425 27.535194) scale(0.065 -0.065)">
      <use xlink:href="#DejaVuSans-58"/>
     </g>
    </g>
   </g>
   <g id="text_28">
    <g clip-path="url(#p578953d9ef)">
     <!-- X -->
     <g style="fill: #ffffff" transform="translate(441.067425 50.712193) scale(0.065 -0.065)">
      <use xlink:href="#DejaVuSans-58"/>
     </g>
    </g>
   </g>
   <g id="text_29">
    <g clip-path="url(#p578953d9ef)">
     <!-- X -->
     <g style="fill: #ffffff" transform="translate(441.067425 73.889193) scale(0.065 -0.065)">
      <use xlink:href="#DejaVuSans-58"/>
     </g>
    </g>
   </g>
   <g id="text_30">
    <g clip-path="url(#p578953d9ef)">
     <!-- H -->
     <g transform="translate(464.026573 73.889193) scale(0.065 -0.065)">
      <use xlink:href="#DejaVuSans-48"/>
     </g>
    </g>
   </g>
   <g id="text_31">
    <g clip-path="url(#p578953d9ef)">
     <!-- H -->
     <g transform="translate(510.380572 73.889193) scale(0.065 -0.065)">
      <use xlink:href="#DejaVuSans-48"/>
     </g>
    </g>
   </g>
   <g id="text_32">
    <g clip-path="url(#p578953d9ef)">
     <!-- X -->
     <g style="fill: #ffffff" transform="translate(510.598424 27.535194) scale(0.065 -0.065)">
      <use xlink:href="#DejaVuSans-58"/>
     </g>
    </g>
   </g>
   <g id="text_33">
    <g clip-path="url(#p578953d9ef)">
     <!-- X -->
     <g style="fill: #ffffff" transform="translate(510.598424 50.712193) scale(0.065 -0.065)">
      <use xlink:href="#DejaVuSans-58"/>
     </g>
    </g>
   </g>
   <g id="text_34">
    <g clip-path="url(#p578953d9ef)">
     <!-- X -->
     <g style="fill: #ffffff" transform="translate(533.775424 73.889193) scale(0.065 -0.065)">
      <use xlink:href="#DejaVuSans-58"/>
     </g>
    </g>
   </g>
   <g id="text_35">
    <g clip-path="url(#p578953d9ef)">
     <!-- H -->
     <g transform="translate(533.557572 27.535194) scale(0.065 -0.065)">
      <use xlink:href="#DejaVuSans-48"/>
     </g>
    </g>
   </g>
   <g id="text_36">
    <g clip-path="url(#p578953d9ef)">
     <!-- H -->
     <g transform="translate(533.557572 50.712193) scale(0.065 -0.065)">
      <use xlink:href="#DejaVuSans-48"/>
     </g>
    </g>
   </g>
   <g id="text_37">
    <g clip-path="url(#p578953d9ef)">
     <!-- H -->
     <g transform="translate(556.734572 73.889193) scale(0.065 -0.065)">
      <use xlink:href="#DejaVuSans-48"/>
     </g>
    </g>
   </g>
   <g id="line2d_45">
    <path d="M 582.355673 14.1531 
L 582.355673 37.3301 
" clip-path="url(#p578953d9ef)" style="fill: none; stroke-dasharray: 1.85,0.8; stroke-dashoffset: 0; stroke: #000000; stroke-width: 0.5"/>
   </g>
   <g id="line2d_46">
    <path d="M 582.355673 37.3301 
L 582.355673 60.507099 
" clip-path="url(#p578953d9ef)" style="fill: none; stroke-dasharray: 1.85,0.8; stroke-dashoffset: 0; stroke: #000000; stroke-width: 0.5"/>
   </g>
   <g id="line2d_47">
    <path d="M 582.355673 60.507099 
L 582.355673 83.684099 
" clip-path="url(#p578953d9ef)" style="fill: none; stroke-dasharray: 1.85,0.8; stroke-dashoffset: 0; stroke: #000000; stroke-width: 0.5"/>
   </g>
   <g id="line2d_48">
    <path d="M 582.355673 83.684099 
L 582.355673 106.861099 
" clip-path="url(#p578953d9ef)" style="fill: none; stroke-dasharray: 1.85,0.8; stroke-dashoffset: 0; stroke: #000000; stroke-width: 0.5"/>
   </g>
   <g id="line2d_49">
    <path d="M 628.709672 14.1531 
L 628.709672 37.3301 
" clip-path="url(#p578953d9ef)" style="fill: none; stroke-dasharray: 1.85,0.8; stroke-dashoffset: 0; stroke: #000000; stroke-width: 0.5"/>
   </g>
   <g id="line2d_50">
    <path d="M 628.709672 37.3301 
L 628.709672 60.507099 
" clip-path="url(#p578953d9ef)" style="fill: none; stroke-dasharray: 1.85,0.8; stroke-dashoffset: 0; stroke: #000000; stroke-width: 0.5"/>
   </g>
   <g id="line2d_51">
    <path d="M 628.709672 60.507099 
L 628.709672 83.684099 
" clip-path="url(#p578953d9ef)" style="fill: none; stroke-dasharray: 1.85,0.8; stroke-dashoffset: 0; stroke: #000000; stroke-width: 0.5"/>
   </g>
   <g id="line2d_52">
    <path d="M 628.709672 83.684099 
L 628.709672 106.861099 
" clip-path="url(#p578953d9ef)" style="fill: none; stroke-dasharray: 1.85,0.8; stroke-dashoffset: 0; stroke: #000000; stroke-width: 0.5"/>
   </g>
   <g id="text_38">
    <g clip-path="url(#p578953d9ef)">
     <!-- H -->
     <g transform="translate(649.442571 27.535194) scale(0.065 -0.065)">
      <use xlink:href="#DejaVuSans-48"/>
     </g>
    </g>
   </g>
   <g id="text_39">
    <g clip-path="url(#p578953d9ef)">
     <!-- H -->
     <g transform="translate(649.442571 50.712193) scale(0.065 -0.065)">
      <use xlink:href="#DejaVuSans-48"/>
     </g>
    </g>
   </g>
   <g id="text_40">
    <g clip-path="url(#p578953d9ef)">
     <!-- H -->
     <g transform="translate(649.442571 73.889193) scale(0.065 -0.065)">
      <use xlink:href="#DejaVuSans-48"/>
     </g>
    </g>
   </g>
   <g id="text_41">
    <g clip-path="url(#p578953d9ef)">
     <!-- X -->
     <g style="fill: #ffffff" transform="translate(672.837422 27.535194) scale(0.065 -0.065)">
      <use xlink:href="#DejaVuSans-58"/>
     </g>
    </g>
   </g>
   <g id="text_42">
    <g clip-path="url(#p578953d9ef)">
     <!-- X -->
     <g style="fill: #ffffff" transform="translate(672.837422 50.712193) scale(0.065 -0.065)">
      <use xlink:href="#DejaVuSans-58"/>
     </g>
    </g>
   </g>
   <g id="text_43">
    <g clip-path="url(#p578953d9ef)">
     <!-- X -->
     <g style="fill: #ffffff" transform="translate(672.837422 73.889193) scale(0.065 -0.065)">
      <use xlink:href="#DejaVuSans-58"/>
     </g>
    </g>
   </g>
   <g id="text_44">
    <g clip-path="url(#p578953d9ef)">
     <!-- H -->
     <g transform="translate(695.79657 73.889193) scale(0.065 -0.065)">
      <use xlink:href="#DejaVuSans-48"/>
     </g>
    </g>
   </g>
   <g id="text_45">
    <g clip-path="url(#p578953d9ef)">
     <!-- H -->
     <g transform="translate(742.150569 73.889193) scale(0.065 -0.065)">
      <use xlink:href="#DejaVuSans-48"/>
     </g>
    </g>
   </g>
   <g id="text_46">
    <g clip-path="url(#p578953d9ef)">
     <!-- X -->
     <g style="fill: #ffffff" transform="translate(742.368421 27.535194) scale(0.065 -0.065)">
      <use xlink:href="#DejaVuSans-58"/>
     </g>
    </g>
   </g>
   <g id="text_47">
    <g clip-path="url(#p578953d9ef)">
     <!-- X -->
     <g style="fill: #ffffff" transform="translate(742.368421 50.712193) scale(0.065 -0.065)">
      <use xlink:href="#DejaVuSans-58"/>
     </g>
    </g>
   </g>
   <g id="text_48">
    <g clip-path="url(#p578953d9ef)">
     <!-- X -->
     <g style="fill: #ffffff" transform="translate(765.545421 73.889193) scale(0.065 -0.065)">
      <use xlink:href="#DejaVuSans-58"/>
     </g>
    </g>
   </g>
   <g id="text_49">
    <g clip-path="url(#p578953d9ef)">
     <!-- H -->
     <g transform="translate(765.327569 27.535194) scale(0.065 -0.065)">
      <use xlink:href="#DejaVuSans-48"/>
     </g>
    </g>
   </g>
   <g id="text_50">
    <g clip-path="url(#p578953d9ef)">
     <!-- H -->
     <g transform="translate(765.327569 50.712193) scale(0.065 -0.065)">
      <use xlink:href="#DejaVuSans-48"/>
     </g>
    </g>
   </g>
   <g id="text_51">
    <g clip-path="url(#p578953d9ef)">
     <!-- H -->
     <g transform="translate(788.504569 73.889193) scale(0.065 -0.065)">
      <use xlink:href="#DejaVuSans-48"/>
     </g>
    </g>
   </g>
   <g id="line2d_53">
    <path d="M 814.12567 14.1531 
L 814.12567 37.3301 
" clip-path="url(#p578953d9ef)" style="fill: none; stroke-dasharray: 1.85,0.8; stroke-dashoffset: 0; stroke: #000000; stroke-width: 0.5"/>
   </g>
   <g id="line2d_54">
    <path d="M 814.12567 37.3301 
L 814.12567 60.507099 
" clip-path="url(#p578953d9ef)" style="fill: none; stroke-dasharray: 1.85,0.8; stroke-dashoffset: 0; stroke: #000000; stroke-width: 0.5"/>
   </g>
   <g id="line2d_55">
    <path d="M 814.12567 60.507099 
L 814.12567 83.684099 
" clip-path="url(#p578953d9ef)" style="fill: none; stroke-dasharray: 1.85,0.8; stroke-dashoffset: 0; stroke: #000000; stroke-width: 0.5"/>
   </g>
   <g id="line2d_56">
    <path d="M 814.12567 83.684099 
L 814.12567 106.861099 
" clip-path="url(#p578953d9ef)" style="fill: none; stroke-dasharray: 1.85,0.8; stroke-dashoffset: 0; stroke: #000000; stroke-width: 0.5"/>
   </g>
   <g id="line2d_57">
    <path d="M 860.479669 14.1531 
L 860.479669 37.3301 
" clip-path="url(#p578953d9ef)" style="fill: none; stroke-dasharray: 1.85,0.8; stroke-dashoffset: 0; stroke: #000000; stroke-width: 0.5"/>
   </g>
   <g id="line2d_58">
    <path d="M 860.479669 37.3301 
L 860.479669 60.507099 
" clip-path="url(#p578953d9ef)" style="fill: none; stroke-dasharray: 1.85,0.8; stroke-dashoffset: 0; stroke: #000000; stroke-width: 0.5"/>
   </g>
   <g id="line2d_59">
    <path d="M 860.479669 60.507099 
L 860.479669 83.684099 
" clip-path="url(#p578953d9ef)" style="fill: none; stroke-dasharray: 1.85,0.8; stroke-dashoffset: 0; stroke: #000000; stroke-width: 0.5"/>
   </g>
   <g id="line2d_60">
    <path d="M 860.479669 83.684099 
L 860.479669 106.861099 
" clip-path="url(#p578953d9ef)" style="fill: none; stroke-dasharray: 1.85,0.8; stroke-dashoffset: 0; stroke: #000000; stroke-width: 0.5"/>
   </g>
   <g id="text_52">
    <g clip-path="url(#p578953d9ef)">
     <!-- H -->
     <g transform="translate(881.212568 27.535194) scale(0.065 -0.065)">
      <use xlink:href="#DejaVuSans-48"/>
     </g>
    </g>
   </g>
   <g id="text_53">
    <g clip-path="url(#p578953d9ef)">
     <!-- H -->
     <g transform="translate(881.212568 50.712193) scale(0.065 -0.065)">
      <use xlink:href="#DejaVuSans-48"/>
     </g>
    </g>
   </g>
   <g id="text_54">
    <g clip-path="url(#p578953d9ef)">
     <!-- H -->
     <g transform="translate(881.212568 73.889193) scale(0.065 -0.065)">
      <use xlink:href="#DejaVuSans-48"/>
     </g>
    </g>
   </g>
   <g id="text_55">
    <g clip-path="url(#p578953d9ef)">
     <!-- X -->
     <g style="fill: #ffffff" transform="translate(904.607419 27.535194) scale(0.065 -0.065)">
      <use xlink:href="#DejaVuSans-58"/>
     </g>
    </g>
   </g>
   <g id="text_56">
    <g clip-path="url(#p578953d9ef)">
     <!-- X -->
     <g style="fill: #ffffff" transform="translate(904.607419 50.712193) scale(0.065 -0.065)">
      <use xlink:href="#DejaVuSans-58"/>
     </g>
    </g>
   </g>
   <g id="text_57">
    <g clip-path="url(#p578953d9ef)">
     <!-- X -->
     <g style="fill: #ffffff" transform="translate(904.607419 73.889193) scale(0.065 -0.065)">
      <use xlink:href="#DejaVuSans-58"/>
     </g>
    </g>
   </g>
   <g id="text_58">
    <g clip-path="url(#p578953d9ef)">
     <!-- H -->
     <g transform="translate(927.566567 73.889193) scale(0.065 -0.065)">
      <use xlink:href="#DejaVuSans-48"/>
     </g>
    </g>
   </g>
   <g id="text_59">
    <g clip-path="url(#p578953d9ef)">
     <!-- H -->
     <g transform="translate(973.920566 73.889193) scale(0.065 -0.065)">
      <use xlink:href="#DejaVuSans-48"/>
     </g>
    </g>
   </g>
   <g id="text_60">
    <g clip-path="url(#p578953d9ef)">
     <!-- X -->
     <g style="fill: #ffffff" transform="translate(974.138418 27.535194) scale(0.065 -0.065)">
      <use xlink:href="#DejaVuSans-58"/>
     </g>
    </g>
   </g>
   <g id="text_61">
    <g clip-path="url(#p578953d9ef)">
     <!-- X -->
     <g style="fill: #ffffff" transform="translate(974.138418 50.712193) scale(0.065 -0.065)">
      <use xlink:href="#DejaVuSans-58"/>
     </g>
    </g>
   </g>
   <g id="text_62">
    <g clip-path="url(#p578953d9ef)">
     <!-- X -->
     <g style="fill: #ffffff" transform="translate(997.315418 73.889193) scale(0.065 -0.065)">
      <use xlink:href="#DejaVuSans-58"/>
     </g>
    </g>
   </g>
   <g id="text_63">
    <g clip-path="url(#p578953d9ef)">
     <!-- H -->
     <g transform="translate(997.097566 27.535194) scale(0.065 -0.065)">
      <use xlink:href="#DejaVuSans-48"/>
     </g>
    </g>
   </g>
   <g id="text_64">
    <g clip-path="url(#p578953d9ef)">
     <!-- H -->
     <g transform="translate(997.097566 50.712193) scale(0.065 -0.065)">
      <use xlink:href="#DejaVuSans-48"/>
     </g>
    </g>
   </g>
   <g id="text_65">
    <g clip-path="url(#p578953d9ef)">
     <!-- H -->
     <g transform="translate(1020.274566 73.889193) scale(0.065 -0.065)">
      <use xlink:href="#DejaVuSans-48"/>
     </g>
    </g>
   </g>
   <g id="line2d_61">
    <path d="M 1045.895667 14.1531 
L 1045.895667 37.3301 
" clip-path="url(#p578953d9ef)" style="fill: none; stroke-dasharray: 1.85,0.8; stroke-dashoffset: 0; stroke: #000000; stroke-width: 0.5"/>
   </g>
   <g id="line2d_62">
    <path d="M 1045.895667 37.3301 
L 1045.895667 60.507099 
" clip-path="url(#p578953d9ef)" style="fill: none; stroke-dasharray: 1.85,0.8; stroke-dashoffset: 0; stroke: #000000; stroke-width: 0.5"/>
   </g>
   <g id="line2d_63">
    <path d="M 1045.895667 60.507099 
L 1045.895667 83.684099 
" clip-path="url(#p578953d9ef)" style="fill: none; stroke-dasharray: 1.85,0.8; stroke-dashoffset: 0; stroke: #000000; stroke-width: 0.5"/>
   </g>
   <g id="line2d_64">
    <path d="M 1045.895667 83.684099 
L 1045.895667 106.861099 
" clip-path="url(#p578953d9ef)" style="fill: none; stroke-dasharray: 1.85,0.8; stroke-dashoffset: 0; stroke: #000000; stroke-width: 0.5"/>
   </g>
   <g id="text_66">
    <g clip-path="url(#p578953d9ef)">
     <!-- H -->
     <g transform="translate(1066.628565 97.066193) scale(0.065 -0.065)">
      <use xlink:href="#DejaVuSans-48"/>
     </g>
    </g>
   </g>
   <g id="text_67">
    <g clip-path="url(#p578953d9ef)">
     <!-- X -->
     <g style="fill: #ffffff" transform="translate(1090.023416 97.066193) scale(0.065 -0.065)">
      <use xlink:href="#DejaVuSans-58"/>
     </g>
    </g>
   </g>
  </g>
 </g>
 <defs>
  <clipPath id="p578953d9ef">
   <rect x="7.2" y="7.2" width="1100.346486" height="101.978799"/>
  </clipPath>
 </defs>
</svg>