<?xml version="1.0" encoding="utf-8" standalone="no"?>
<!DOCTYPE svg PUBLIC "-//W3C//DTD SVG 1.1//EN"
  "http://www.w3.org/Graphics/SVG/1.1/DTD/svg11.dtd">
<svg xmlns:xlink="http://www.w3.org/1999/xlink" width="220.03005pt" height="125.649599pt" viewBox="0 0 220.03005 125.649599" xmlns="http://www.w3.org/2000/svg" version="1.1">
 <metadata>
  <rdf:RDF xmlns:dc="http://purl.org/dc/elements/1.1/" xmlns:cc="http://creativecommons.org/ns#" xmlns:rdf="http://www.w3.org/1999/02/22-rdf-syntax-ns#">
   <cc:Work>
    <dc:type rdf:resource="http://purl.org/dc/dcmitype/StillImage"/>
    <dc:date>2025-07-16T21:51:42.967735</dc:date>
    <dc:format>image/svg+xml</dc:format>
    <dc:creator>
     <cc:Agent>
      <dc:title>Matplotlib v3.10.3, https://matplotlib.org/</dc:title>
     </cc:Agent>
    </dc:creator>
   </cc:Work>
  </rdf:RDF>
 </metadata>
 <defs>
  <style type="text/css">*{stroke-linejoin: round; stroke-linecap: butt}</style>
 </defs>
 <g id="figure_1">
  <g id="patch_1">
   <path d="M 0 125.649599 
L 220.03005 125.649599 
L 220.03005 0 
L 0 0 
z
" style="fill: #ffffff"/>
  </g>
  <g id="axes_1">
   <g id="line2d_1">
    <path d="M 64.497252 44.2832 
L 208.19465 44.2832 
" clip-path="url(#p1d45a3079e)" style="fill: none; stroke: #000000; stroke-width: 2; stroke-linecap: square"/>
   </g>
   <g id="line2d_2">
    <path d="M 64.497252 90.637199 
L 208.19465 90.637199 
" clip-path="url(#p1d45a3079e)" style="fill: none; stroke: #000000; stroke-width: 2; stroke-linecap: square"/>
   </g>
   <g id="patch_2">
    <path d="M 59.861852 21.1062 
L -1098.988133 21.1062 
L -1098.988133 160.168198 
L 59.861852 160.168198 
z
" clip-path="url(#p1d45a3079e)" style="fill: #ffffff; stroke: #ffffff; stroke-width: 1.5; stroke-linejoin: miter"/>
   </g>
   <g id="line2d_3">
    <path d="M 89.528411 90.637199 
L 89.528411 44.2832 
" clip-path="url(#p1d45a3079e)" style="fill: none; stroke: #002d9c; stroke-width: 2; stroke-linecap: square"/>
   </g>
   <g id="line2d_4">
    <path d="M 182.23641 90.637199 
L 182.23641 44.2832 
" clip-path="url(#p1d45a3079e)" style="fill: none; stroke: #002d9c; stroke-width: 2; stroke-linecap: square"/>
   </g>
   <g id="patch_3">
    <path d="M 89.528411 48.802714 
C 90.727001 48.802714 91.87666 48.32651 92.724191 47.478979 
C 93.571722 46.631448 94.047926 45.481789 94.047926 44.2832 
C 94.047926 43.08461 93.571722 41.934951 92.724191 41.08742 
C 91.87666 40.239889 90.727001 39.763685 89.528411 39.763685 
C 88.329822 39.763685 87.180162 40.239889 86.332632 41.08742 
C 85.485101 41.934951 85.008896 43.08461 85.008896 44.2832 
C 85.008896 45.481789 85.485101 46.631448 86.332632 47.478979 
C 87.180162 48.32651 88.329822 48.802714 89.528411 48.802714 
z
" clip-path="url(#p1d45a3079e)" style="fill: #002d9c; stroke: #002d9c; stroke-width: 1.5; stroke-linejoin: miter"/>
   </g>
   <g id="patch_4">
    <path d="M 89.528411 101.182734 
C 92.32512 101.182734 95.007659 100.07159 96.98523 98.094018 
C 98.962802 96.116447 100.073946 93.433907 100.073946 90.637199 
C 100.073946 87.84049 98.962802 85.157951 96.98523 83.18038 
C 95.007659 81.202808 92.32512 80.091664 89.528411 80.091664 
C 86.731703 80.091664 84.049164 81.202808 82.071592 83.18038 
C 80.09402 85.157951 78.982876 87.84049 78.982876 90.637199 
C 78.982876 93.433907 80.09402 96.116447 82.071592 98.094018 
C 84.049164 100.07159 86.731703 101.182734 89.528411 101.182734 
z
" clip-path="url(#p1d45a3079e)" style="fill: #002d9c; stroke: #002d9c; stroke-width: 2; stroke-linejoin: miter"/>
   </g>
   <g id="patch_5">
    <path d="M 120.817361 105.702249 
L 150.94746 105.702249 
L 150.94746 75.572149 
L 120.817361 75.572149 
z
" clip-path="url(#p1d45a3079e)" style="fill: #33b1ff; stroke: #33b1ff; stroke-width: 1.5; stroke-linejoin: miter"/>
   </g>
   <g id="patch_6">
    <path d="M 182.23641 48.802714 
C 183.434999 48.802714 184.584659 48.32651 185.43219 47.478979 
C 186.27972 46.631448 186.755925 45.481789 186.755925 44.2832 
C 186.755925 43.08461 186.27972 41.934951 185.43219 41.08742 
C 184.584659 40.239889 183.434999 39.763685 182.23641 39.763685 
C 181.037821 39.763685 179.888161 40.239889 179.04063 41.08742 
C 178.1931 41.934951 177.716895 43.08461 177.716895 44.2832 
C 177.716895 45.481789 178.1931 46.631448 179.04063 47.478979 
C 179.888161 48.32651 181.037821 48.802714 182.23641 48.802714 
z
" clip-path="url(#p1d45a3079e)" style="fill: #002d9c; stroke: #002d9c; stroke-width: 1.5; stroke-linejoin: miter"/>
   </g>
   <g id="patch_7">
    <path d="M 182.23641 101.182734 
C 185.033119 101.182734 187.715658 100.07159 189.693229 98.094018 
C 191.670801 96.116447 192.781945 93.433907 192.781945 90.637199 
C 192.781945 87.84049 191.670801 85.157951 189.693229 83.18038 
C 187.715658 81.202808 185.033119 80.091664 182.23641 80.091664 
C 179.439701 80.091664 176.757162 81.202808 174.779591 83.18038 
C 172.802019 85.157951 171.690875 87.84049 171.690875 90.637199 
C 171.690875 93.433907 172.802019 96.116447 174.779591 98.094018 
C 176.757162 100.07159 179.439701 101.182734 182.23641 101.182734 
z
" clip-path="url(#p1d45a3079e)" style="fill: #002d9c; stroke: #002d9c; stroke-width: 2; stroke-linejoin: miter"/>
   </g>
   <g id="line2d_5">
    <path d="M 89.528411 96.663219 
L 89.528411 84.611179 
" clip-path="url(#p1d45a3079e)" style="fill: none; stroke: #ffffff; stroke-width: 2; stroke-linecap: square"/>
   </g>
   <g id="line2d_6">
    <path d="M 83.502391 90.637199 
L 95.554431 90.637199 
" clip-path="url(#p1d45a3079e)" style="fill: none; stroke: #ffffff; stroke-width: 2; stroke-linecap: square"/>
   </g>
   <g id="line2d_7">
    <path d="M 182.23641 96.663219 
L 182.23641 84.611179 
" clip-path="url(#p1d45a3079e)" style="fill: none; stroke: #ffffff; stroke-width: 2; stroke-linecap: square"/>
   </g>
   <g id="line2d_8">
    <path d="M 176.21039 90.637199 
L 188.26243 90.637199 
" clip-path="url(#p1d45a3079e)" style="fill: none; stroke: #ffffff; stroke-width: 2; stroke-linecap: square"/>
   </g>
   <g id="text_1">
    <g clip-path="url(#p1d45a3079e)">
     <!-- ${q}_{0}$ -->
     <g transform="translate(37.188952 48.734176) scale(0.1625 -0.1625)">
      <defs>
       <path id="DejaVuSans-Oblique-71" d="M 2669 525 
Q 2438 222 2123 65 
Q 1809 -91 1428 -91 
Q 897 -91 595 267 
Q 294 625 294 1253 
Q 294 1759 480 2231 
Q 666 2703 1013 3078 
Q 1238 3322 1530 3453 
Q 1822 3584 2144 3584 
Q 2531 3584 2781 3431 
Q 3031 3278 3144 2969 
L 3244 3494 
L 3822 3494 
L 2888 -1319 
L 2309 -1319 
L 2669 525 
z
M 891 1338 
Q 891 875 1084 633 
Q 1278 391 1644 391 
Q 2188 391 2572 911 
Q 2956 1431 2956 2175 
Q 2956 2625 2757 2864 
Q 2559 3103 2188 3103 
Q 1916 3103 1684 2976 
Q 1453 2850 1281 2606 
Q 1100 2350 995 2006 
Q 891 1663 891 1338 
z
" transform="scale(0.015625)"/>
       <path id="DejaVuSans-30" d="M 2034 4250 
Q 1547 4250 1301 3770 
Q 1056 3291 1056 2328 
Q 1056 1369 1301 889 
Q 1547 409 2034 409 
Q 2525 409 2770 889 
Q 3016 1369 3016 2328 
Q 3016 3291 2770 3770 
Q 2525 4250 2034 4250 
z
M 2034 4750 
Q 2819 4750 3233 4129 
Q 3647 3509 3647 2328 
Q 3647 1150 3233 529 
Q 2819 -91 2034 -91 
Q 1250 -91 836 529 
Q 422 1150 422 2328 
Q 422 3509 836 4129 
Q 1250 4750 2034 4750 
z
" transform="scale(0.015625)"/>
      </defs>
      <use xlink:href="#DejaVuSans-Oblique-71"/>
      <use xlink:href="#DejaVuSans-30" transform="translate(63.476562 -16.40625) scale(0.7)"/>
     </g>
    </g>
   </g>
   <g id="text_2">
    <g clip-path="url(#p1d45a3079e)">
     <!-- ${q}_{1}$ -->
     <g transform="translate(37.188952 95.088175) scale(0.1625 -0.1625)">
      <defs>
       <path id="DejaVuSans-31" d="M 794 531 
L 1825 531 
L 1825 4091 
L 703 3866 
L 703 4441 
L 1819 4666 
L 2450 4666 
L 2450 531 
L 3481 531 
L 3481 0 
L 794 0 
L 794 531 
z
" transform="scale(0.015625)"/>
      </defs>
      <use xlink:href="#DejaVuSans-Oblique-71"/>
      <use xlink:href="#DejaVuSans-31" transform="translate(63.476562 -16.40625) scale(0.7)"/>
     </g>
    </g>
   </g>
   <g id="text_3">
    <g clip-path="url(#p1d45a3079e)">
     <!-- $\theta_h$ -->
     <g transform="translate(131.522411 101.883729) scale(0.08 -0.08)">
      <defs>
       <path id="DejaVuSans-Oblique-3b8" d="M 2913 2219 
L 925 2219 
Q 791 1284 928 888 
Q 1100 400 1566 400 
Q 2034 400 2391 891 
Q 2703 1322 2913 2219 
z
M 3009 2750 
Q 3094 3638 2984 3950 
Q 2813 4444 2353 4444 
Q 1875 4444 1525 3956 
Q 1250 3563 1034 2750 
L 3009 2750 
z
M 2444 4913 
Q 3194 4913 3494 4250 
Q 3794 3591 3566 2422 
Q 3341 1256 2781 594 
Q 2225 -72 1475 -72 
Q 722 -72 425 594 
Q 128 1256 353 2422 
Q 581 3591 1134 4250 
Q 1691 4913 2444 4913 
z
" transform="scale(0.015625)"/>
       <path id="DejaVuSans-Oblique-68" d="M 3566 2113 
L 3156 0 
L 2578 0 
L 2988 2091 
Q 3016 2238 3031 2350 
Q 3047 2463 3047 2528 
Q 3047 2791 2881 2937 
Q 2716 3084 2419 3084 
Q 1956 3084 1617 2771 
Q 1278 2459 1178 1941 
L 800 0 
L 225 0 
L 1172 4863 
L 1747 4863 
L 1375 2950 
Q 1594 3244 1934 3414 
Q 2275 3584 2650 3584 
Q 3113 3584 3367 3334 
Q 3622 3084 3622 2631 
Q 3622 2519 3608 2391 
Q 3594 2263 3566 2113 
z
" transform="scale(0.015625)"/>
      </defs>
      <use xlink:href="#DejaVuSans-Oblique-3b8" transform="translate(0 0.234375)"/>
      <use xlink:href="#DejaVuSans-Oblique-68" transform="translate(61.181641 -16.171875) scale(0.7)"/>
     </g>
    </g>
   </g>
   <g id="text_4">
    <g clip-path="url(#p1d45a3079e)">
     <!-- $\mathrm{R_Z}$ -->
     <g transform="translate(127.952411 89.704871) scale(0.13 -0.13)">
      <defs>
       <path id="DejaVuSans-52" d="M 2841 2188 
Q 3044 2119 3236 1894 
Q 3428 1669 3622 1275 
L 4263 0 
L 3584 0 
L 2988 1197 
Q 2756 1666 2539 1819 
Q 2322 1972 1947 1972 
L 1259 1972 
L 1259 0 
L 628 0 
L 628 4666 
L 2053 4666 
Q 2853 4666 3247 4331 
Q 3641 3997 3641 3322 
Q 3641 2881 3436 2590 
Q 3231 2300 2841 2188 
z
M 1259 4147 
L 1259 2491 
L 2053 2491 
Q 2509 2491 2742 2702 
Q 2975 2913 2975 3322 
Q 2975 3731 2742 3939 
Q 2509 4147 2053 4147 
L 1259 4147 
z
" transform="scale(0.015625)"/>
       <path id="DejaVuSans-5a" d="M 359 4666 
L 4025 4666 
L 4025 4184 
L 1075 531 
L 4097 531 
L 4097 0 
L 288 0 
L 288 481 
L 3238 4134 
L 359 4134 
L 359 4666 
z
" transform="scale(0.015625)"/>
      </defs>
      <use xlink:href="#DejaVuSans-52" transform="translate(0 0.09375)"/>
      <use xlink:href="#DejaVuSans-5a" transform="translate(70.439453 -16.3125) scale(0.7)"/>
     </g>
    </g>
   </g>
  </g>
 </g>
 <defs>
  <clipPath id="p1d45a3079e">
   <rect x="7.2" y="7.2" width="205.63005" height="111.249599"/>
  </clipPath>
 </defs>
</svg>